<svg width="72" height="72" viewBox="0 0 72 72" fill="none" xmlns="http://www.w3.org/2000/svg">
<g clip-path="url(#clip0_15814_5184)">
<path d="M36.0005 66.7154C52.2721 66.7154 65.4629 53.2216 65.4629 36.5762C65.4629 19.9308 52.2721 6.43701 36.0005 6.43701C19.7289 6.43701 6.53809 19.9308 6.53809 36.5762C6.53809 53.2216 19.7289 66.7154 36.0005 66.7154Z" fill="white"/>
<path d="M39.9747 29.8366H40.5795H44.0499V32.155H40.5795H37.0947V30.9886V29.8222C37.0947 29.8222 41.7315 24.5374 41.7315 24.0334C41.7315 23.7166 41.6163 23.443 41.3859 23.2126C41.1555 22.9822 40.8819 22.867 40.5651 22.867C40.2483 22.867 39.9747 22.9822 39.7443 23.2126C39.5139 23.443 39.4131 23.7166 39.4131 24.0334H37.0947C37.0947 23.083 37.4403 22.2622 38.1171 21.5854C38.7939 20.9086 39.6147 20.563 40.5795 20.563C41.5299 20.563 42.3507 20.9086 43.0275 21.5854C43.7043 22.2622 44.0499 23.083 44.0499 24.0334C44.0643 24.8398 39.9747 29.8222 39.9747 29.8366Z" fill="#EC7C23"/>
<path d="M45.1584 28.7858L45.4032 28.7714C45.4032 28.7714 46.512 28.7714 47.0592 28.757C47.1456 28.757 47.3472 28.757 47.3472 28.757C47.3472 28.757 47.3904 28.8866 47.4336 29.0018C47.7504 29.7074 48.3264 30.0098 49.1184 29.8802C49.752 29.7794 50.2848 29.1314 50.2848 28.4834C50.2848 28.0658 50.0832 27.7346 49.824 27.461C49.3632 26.957 48.8592 26.4818 48.3696 26.0066C48.312 25.949 48.2544 25.9058 48.1392 25.805C48.4704 25.805 48.7296 25.8194 48.9888 25.805C49.5216 25.7762 50.1696 25.445 50.256 24.7106C50.3568 23.933 50.0112 23.2562 49.3776 22.9826C48.528 22.6226 47.6496 23.0978 47.3904 23.861C47.3616 23.933 47.3328 24.0482 47.3328 24.0482C47.3328 24.0482 47.1744 24.0482 47.1024 24.0482C46.4976 24.0194 45.3024 23.9762 45.3024 23.9762H45.1152L45.144 23.717C45.1008 23.7026 45.6768 21.917 46.5552 21.3698C47.9088 20.3906 49.3488 20.3906 50.8176 21.0818C51.6528 21.485 52.0992 22.2194 52.3008 23.1122C52.4736 23.8898 52.416 24.6386 52.0704 25.3442C51.9408 25.6034 51.7392 25.8338 51.5232 26.0354C51.3936 26.165 51.3648 26.237 51.5088 26.381C51.9264 26.7698 52.2576 27.2162 52.416 27.7778C52.7184 28.9154 52.4448 29.9378 51.6672 30.8162C50.5872 32.0546 49.248 32.429 47.7648 32.0258C46.296 31.6226 45.4896 30.5714 45.1584 29.117C45.1296 29.0162 45.1584 28.7858 45.1584 28.7858Z" fill="#EC7C23"/>
<path d="M35.9999 71.4383C31.2191 71.4383 26.5823 70.5023 22.2047 68.6447C17.9855 66.8735 14.1839 64.3103 10.9439 61.0559C7.68952 57.8015 5.14072 54.0143 3.35512 49.7951C1.49752 45.4175 0.561523 40.7807 0.561523 35.9999C0.561523 31.2191 1.49752 26.5823 3.35512 22.2047C5.12632 17.9855 7.68952 14.1839 10.9439 10.9439C14.1983 7.68952 17.9855 5.14072 22.2047 3.35512C26.5823 1.49752 31.2191 0.561523 35.9999 0.561523C40.7807 0.561523 45.4175 1.49752 49.7951 3.35512C54.0143 5.12632 57.8159 7.68952 61.0559 10.9439C64.3103 14.1983 66.8591 17.9855 68.6447 22.2047C70.4879 26.5823 71.4383 31.2191 71.4383 35.9999C71.4383 40.7807 70.5023 45.4175 68.6447 49.7951C66.8591 54.0143 64.3103 57.8015 61.0559 61.0559C57.8015 64.3103 54.0143 66.8591 49.7951 68.6447C45.4175 70.5023 40.7807 71.4383 35.9999 71.4383ZM35.9999 11.7071C32.7167 11.7071 29.5343 12.3551 26.5391 13.6079C23.6447 14.8319 21.0527 16.5887 18.8207 18.8207C16.5887 21.0527 14.8319 23.6591 13.6079 26.5391C12.3407 29.5343 11.7071 32.7167 11.7071 35.9999C11.7071 39.2831 12.3551 42.4655 13.6079 45.4607C14.8319 48.3551 16.5887 50.9471 18.8207 53.1791C21.0527 55.4111 23.6591 57.1679 26.5391 58.3919C29.5343 59.6591 32.7167 60.2927 35.9999 60.2927C39.2831 60.2927 42.4655 59.6447 45.4607 58.3919C48.3551 57.1679 50.9471 55.4111 53.1791 53.1791C55.4111 50.9471 57.1679 48.3407 58.3919 45.4607C59.6591 42.4655 60.2927 39.2831 60.2927 35.9999C60.2927 32.7167 59.6447 29.5343 58.3919 26.5391C57.1679 23.6447 55.4111 21.0527 53.1791 18.8207C50.9471 16.5887 48.3407 14.8319 45.4607 13.6079C42.4655 12.3551 39.2831 11.7071 35.9999 11.7071Z" fill="#EC7C23"/>
<path d="M51.4084 48.2543C51.4084 52.0127 48.4564 52.0127 47.65 52.0127H43.8916V48.2543V46.6415V44.4959V43.9631V41.2847H47.1172C47.8516 41.2847 48.4852 41.5439 49.018 42.0767C49.5508 42.6095 49.81 43.2287 49.81 43.9775C49.81 44.2655 49.7524 44.7983 49.45 45.3311C49.8964 45.4031 51.4084 45.7487 51.4084 48.2543ZM47.1172 45.0143C47.4772 45.0143 47.65 44.4959 47.65 44.1359C47.65 43.7759 47.4772 43.4159 47.1172 43.4159H46.0516V44.1359V45.0143H47.1172ZM46.5844 47.1599H46.0516V48.2543V49.8527H47.65C47.938 49.8527 49.2628 49.8527 49.2628 48.4991C49.2628 47.1455 47.9668 47.1455 47.65 47.1455L46.5844 47.1599Z" fill="#EC7C23"/>
<path d="M27.274 41.2705L26.41 43.4161H22.9828V45.5617H26.2084L25.3444 47.7073H22.9972V49.8529H27.2884L26.4244 51.9985H22.9972H20.8516V47.7073V45.5617V41.2705H27.274Z" fill="#EC7C23"/>
<path d="M43.5462 41.2705L42.6822 43.4161H39.255V45.5617H42.4662L41.6022 47.7073H39.255V49.8529V51.9985H37.1094V47.7073V45.5617V41.2705H43.5462Z" fill="#EC7C23"/>
<path d="M31.8816 46.3681L32.9904 43.7185L32.112 41.7745L31.896 41.2705L31.6512 41.7889L27.0576 51.9985H27.5184H28.9008H28.9872H29.3472L31.0464 48.2545L31.8816 46.3681Z" fill="#EC7C23"/>
<path d="M33.8261 45.5762L32.7173 48.2402L32.7317 48.2546H32.7173L32.6741 48.3698L31.8389 50.4002H33.6965L33.7253 50.4722L34.4165 51.9986H34.7765H34.8773H36.2597H36.7061L33.8261 45.5762Z" fill="#EC7C23"/>
<path d="M23.0109 29.8366H23.6157H27.0861V32.155H23.6157H20.1309V30.9886V29.8222C20.1309 29.8222 24.7677 24.5374 24.7677 24.0334C24.7677 23.7166 24.6525 23.443 24.4221 23.2126C24.1917 22.9822 23.9181 22.867 23.6013 22.867C23.2845 22.867 23.0109 22.9822 22.7805 23.2126C22.5501 23.443 22.4493 23.7166 22.4493 24.0334H20.1309C20.1309 23.083 20.4765 22.2622 21.1533 21.5854C21.8301 20.9086 22.6509 20.563 23.6157 20.563C24.5661 20.563 25.3869 20.9086 26.0637 21.5854C26.7405 22.2622 27.0861 23.083 27.0861 24.0334C27.1005 24.8398 23.0109 29.8222 23.0109 29.8366Z" fill="#EC7C23"/>
<path d="M34.9058 22.2622C35.7266 23.3998 36.1298 24.7678 36.1298 26.3518C36.1298 27.9502 35.7266 29.3182 34.9058 30.4414C34.085 31.579 33.1202 32.1406 31.9682 32.1406C30.8162 32.1406 29.8514 31.579 29.0306 30.4414C28.2242 29.3038 27.8066 27.9358 27.8066 26.3518C27.8066 24.7534 28.2098 23.3998 29.0306 22.2622C29.837 21.1246 30.8162 20.563 31.9682 20.563C33.1202 20.563 34.085 21.139 34.9058 22.2622ZM30.2114 23.9038C29.7218 24.5806 29.477 25.4014 29.477 26.3518C29.477 27.3022 29.7218 28.123 30.2114 28.7998C30.701 29.4766 31.2914 29.8222 31.9682 29.8222C32.645 29.8222 33.2354 29.4766 33.725 28.7998C34.2146 28.123 34.4594 27.3022 34.4594 26.3518C34.4594 25.4014 34.2146 24.5806 33.725 23.9038C33.2354 23.227 32.645 22.8814 31.9682 22.8814C31.2914 22.8814 30.701 23.2126 30.2114 23.9038Z" fill="#EC7C23"/>
<path d="M13.9678 35.9854H58.2766" stroke="#EC7C23" stroke-miterlimit="10" stroke-linecap="round"/>
<path d="M35.3372 2.85107C35.4236 2.86547 35.51 2.87987 35.582 2.89427C36.2732 2.92307 36.9788 2.96627 37.67 3.00947C38.0876 3.03827 38.5196 3.05267 38.9372 3.13907C39.0236 3.15347 39.11 3.16787 39.1964 3.19667C39.8876 3.38387 40.3772 3.93107 40.4636 4.65107C40.4924 4.95347 40.4924 5.24147 40.406 5.54387C40.2332 6.13427 39.8732 6.52307 39.2972 6.72467C39.0812 6.79667 38.8652 6.83987 38.6348 6.89747C38.6492 6.91187 38.6636 6.95507 38.6924 6.96947C39.11 7.24307 39.4124 7.61747 39.6716 8.04947C39.9308 8.49587 40.1756 8.94227 40.4204 9.37427C40.5356 9.57587 40.6364 9.77747 40.7516 9.97907C40.7228 9.99347 40.7084 10.0223 40.6796 10.0223C40.1756 9.99347 39.6716 9.96467 39.182 9.95027C39.0956 9.89267 39.0668 9.79187 39.0092 9.71987C38.6348 9.10067 38.2604 8.46707 37.886 7.84787C37.7996 7.68947 37.6844 7.54547 37.5836 7.40147C37.4252 7.19987 37.238 7.07027 36.9788 7.01267C36.7484 6.96947 36.4316 6.94067 36.2012 6.95507C36.1436 7.25747 36.158 7.57427 36.1436 7.89107C36.1292 8.19347 36.1148 8.49587 36.086 8.81267C36.0716 9.12947 36.0428 9.43187 36.0284 9.74867C35.8412 9.79187 35.1356 9.76307 34.6892 9.70547C34.6892 9.66227 34.6748 9.61907 34.6748 9.57587C34.7036 9.05747 34.7324 8.53907 34.7468 8.02067C34.7612 7.67507 34.79 7.31507 34.8044 6.95507C34.8332 6.22067 34.8764 5.50067 34.9196 4.76627C34.9484 4.19027 34.9772 3.61427 35.006 3.05267C35.006 2.99507 35.006 2.95187 35.006 2.89427C35.1212 2.85107 35.2364 2.85107 35.3372 2.85107ZM36.3308 4.10387C36.302 4.66547 36.2732 5.19827 36.2444 5.73107C36.2444 5.75987 36.2588 5.78867 36.2588 5.81747C36.2876 5.81747 36.3164 5.83187 36.3452 5.83187C36.8492 5.86067 37.3532 5.88947 37.8428 5.90387C38.0156 5.90387 38.2028 5.90387 38.3756 5.88947C38.6348 5.86067 38.8364 5.73107 38.9516 5.50067C39.0668 5.27027 39.0956 5.01107 39.0092 4.76627C38.9228 4.44947 38.678 4.29107 38.3756 4.24787C38.2028 4.21907 38.0156 4.20467 37.8428 4.19027C37.4252 4.16147 36.9932 4.13267 36.5756 4.11827C36.518 4.10387 36.4316 4.10387 36.3308 4.10387Z" fill="white"/>
<path d="M68.8177 32.4862C68.5585 32.5294 68.2993 32.5726 68.0257 32.6014C67.9393 32.6158 67.8529 32.6302 67.7521 32.6302C67.7377 32.5726 67.6945 32.5294 67.6945 32.4862C67.6081 31.9822 67.5217 31.4782 67.4497 30.9742C67.4353 30.8734 67.4209 30.7726 67.3921 30.6574C67.0033 30.6862 66.6433 30.7726 66.2689 30.8302C65.8945 30.8878 65.5201 30.9454 65.1601 31.0174C64.8001 31.075 64.4257 31.1326 64.0657 31.2046C63.6913 31.2622 63.3169 31.3198 62.9569 31.3918C62.5825 31.4494 62.2081 31.507 61.8337 31.579C61.7473 31.4494 61.7617 31.291 61.7329 31.147C61.7041 31.003 61.6753 30.8446 61.6609 30.715C61.6321 30.571 61.6177 30.427 61.5889 30.2686C61.6465 30.2542 61.6897 30.2398 61.7329 30.2254C62.1793 30.1534 62.6257 30.067 63.0721 29.995C63.6913 29.8942 64.3105 29.7934 64.9297 29.6926C65.4481 29.6062 65.9809 29.5198 66.5137 29.4334C66.7297 29.4046 66.9457 29.3614 67.1761 29.3182C67.1473 28.9726 67.0753 28.6558 67.0321 28.3246C66.9889 27.9934 66.9313 27.6766 66.8737 27.3598C67.0321 27.2734 67.3921 27.2014 67.9537 27.1582C68.0113 27.2014 68.0113 27.2734 68.0257 27.3454C68.1985 28.4254 68.3857 29.5054 68.5585 30.5998C68.6305 31.0174 68.7025 31.435 68.7601 31.8526C68.7745 31.9246 68.7745 31.9966 68.7745 32.0542C68.7889 32.1262 68.8033 32.1982 68.8177 32.2558C68.8177 32.3278 68.8177 32.3998 68.8177 32.4862Z" fill="white"/>
<path d="M36.8492 67.8094C36.8348 67.7806 36.8348 67.7517 36.8204 67.7229C36.3308 66.9021 35.8412 66.0958 35.3516 65.2894C35.3372 65.2606 35.3084 65.2318 35.2652 65.1886C35.2364 65.275 35.2508 65.3469 35.2364 65.4189C35.2364 65.4909 35.2364 65.5629 35.2364 65.6349C35.2364 65.7069 35.2364 65.7789 35.2364 65.8509C35.2364 65.9229 35.2364 65.9949 35.2364 66.0669C35.2364 66.1389 35.2364 66.2109 35.2364 66.2829C35.2364 66.3549 35.2364 66.4269 35.2364 66.4989C35.2364 66.5709 35.2364 66.6429 35.2364 66.7149C35.2364 66.7869 35.2364 66.8589 35.2364 66.9309C35.2364 67.0029 35.2364 67.0749 35.2364 67.147C35.2364 67.2189 35.2364 67.2909 35.2364 67.3629C35.2364 67.4349 35.2364 67.5069 35.2364 67.5789C35.2364 67.6509 35.222 67.7229 35.222 67.795C35.1068 67.8526 34.9916 67.8238 34.8764 67.8238C34.7612 67.8238 34.646 67.8238 34.5164 67.8238C34.502 67.7662 34.502 67.723 34.502 67.6798C34.5164 66.4558 34.5308 65.2318 34.5308 64.0078C34.5308 63.9502 34.5308 63.9069 34.5452 63.8349C34.574 63.8205 34.6028 63.8062 34.6316 63.8062C34.862 63.8062 35.078 63.8062 35.3228 63.8206C35.3804 63.907 35.4236 63.9789 35.4668 64.0509C35.9132 64.8141 36.374 65.5774 36.8348 66.3262C36.8636 66.3838 36.878 66.4414 36.9644 66.4702C36.9788 66.3406 36.9788 66.2254 36.9788 66.0958C36.9788 65.9662 36.9788 65.851 36.9788 65.7214C36.9788 65.5918 36.9788 65.4765 36.9788 65.3469C36.9788 65.2317 36.9788 65.1166 36.9788 65.0014C36.9788 64.8718 36.9788 64.7565 36.9788 64.6269C36.9788 64.4973 36.9788 64.3822 36.9788 64.2526C36.9788 64.1374 36.9932 64.0078 36.9932 63.8926C37.1948 63.8494 37.526 63.8638 37.7132 63.8926C37.7132 63.9646 37.7276 64.0365 37.7276 64.1229C37.7132 65.1741 37.7132 66.2254 37.6988 67.2766C37.6988 67.4782 37.6844 67.6942 37.67 67.9102C37.382 67.8094 37.1084 67.8094 36.8492 67.8094Z" fill="white"/>
<path d="M59.659 18.547C59.659 18.6334 59.659 18.6622 59.6734 18.691C59.7166 19.0654 59.6878 19.4398 59.5726 19.7998C59.4718 20.1454 59.3422 20.4766 59.227 20.8222C59.083 21.211 58.9534 21.5854 58.8094 21.9742C58.7806 22.0462 58.7518 22.1038 58.7374 22.1614C58.723 22.1614 58.7086 22.1614 58.7086 22.1614C58.7086 22.1614 58.6942 22.1614 58.6942 22.147C58.3774 21.7438 58.075 21.3406 57.7438 20.9374C57.7582 20.8654 57.7726 20.7934 57.8014 20.7358C58.0318 20.0302 58.2766 19.3246 58.4926 18.619C58.5502 18.4462 58.5934 18.259 58.6366 18.0718C58.6942 17.8126 58.651 17.5534 58.5214 17.323C58.4062 17.1214 58.2478 16.9198 58.0894 16.7326C57.8878 16.8622 57.7006 17.0206 57.5134 17.1646C57.3262 17.3086 57.139 17.4526 56.9518 17.5966C56.7646 17.7406 56.5774 17.8846 56.3902 18.0286C56.203 18.1726 56.0302 18.3166 55.8142 18.4606C55.5406 18.1006 55.267 17.755 55.0078 17.4094C55.0222 17.3806 55.0366 17.3518 55.0654 17.3374C56.8222 15.9838 58.5646 14.6302 60.3214 13.291C60.3358 13.2766 60.3646 13.2766 60.3934 13.2622C60.4366 13.3198 60.4798 13.363 60.523 13.4206C61.0702 14.1262 61.6174 14.8318 62.1646 15.5374C62.3662 15.811 62.5534 16.0846 62.7406 16.3726C62.8126 16.4878 62.8702 16.603 62.9134 16.7326C63.0862 17.1214 63.1006 17.5246 62.9278 17.9134C62.6542 18.5902 62.1502 19.0078 61.4446 19.1806C61.1134 19.267 60.7678 19.2094 60.451 19.0798C60.235 18.979 60.0334 18.8494 59.8606 18.7054C59.803 18.6622 59.7454 18.619 59.659 18.547ZM58.9246 16.0558C58.9534 16.099 58.9678 16.1278 58.9822 16.1566C59.2558 16.5022 59.5294 16.8622 59.803 17.2078C59.9326 17.3662 60.0766 17.5246 60.2206 17.683C60.3934 17.8558 60.6094 17.9422 60.8542 17.9278C61.0414 17.9134 61.2142 17.827 61.3582 17.6974C61.6606 17.4382 61.7326 17.0926 61.5742 16.747C61.531 16.6606 61.4734 16.5742 61.4158 16.4878C61.0702 16.027 60.7246 15.5806 60.379 15.1198C60.3502 15.091 60.3214 15.0478 60.2926 15.0046C59.8318 15.3646 59.3854 15.7102 58.9246 16.0558Z" fill="white"/>
<path d="M29.5195 3.64295C30.5851 3.62855 31.4347 4.03175 32.0827 4.88135C32.3851 5.29895 32.5867 5.77415 32.7163 6.26375C32.8027 6.59495 32.8747 6.92615 32.8891 7.25735C32.9467 8.16455 32.7307 8.97095 32.1115 9.64775C31.8955 9.87815 31.6507 10.0798 31.3771 10.2238C30.7867 10.555 30.1531 10.7134 29.4907 10.7278C28.2955 10.7422 27.4027 10.2094 26.7979 9.18695C26.5675 8.78375 26.4235 8.35175 26.3227 7.91975C26.2651 7.64615 26.2219 7.35815 26.2075 7.08455C26.1499 6.03335 26.4811 5.14055 27.2875 4.44935C27.6475 4.14695 28.0651 3.95975 28.5259 3.84455C28.8283 3.71495 29.1595 3.64295 29.5195 3.64295ZM27.5611 6.66695C27.5755 7.30055 27.7051 7.83335 27.9211 8.35175C28.0651 8.65415 28.2523 8.92775 28.5115 9.12935C28.9147 9.44615 29.3755 9.56135 29.8795 9.48935C30.4843 9.40295 30.9595 9.11495 31.2475 8.56775C31.3915 8.29415 31.4491 7.99175 31.4635 7.67495C31.4779 7.12775 31.3627 6.59495 31.1611 6.09095C31.0891 5.91815 31.0027 5.73095 30.8875 5.57255C30.6139 5.15495 30.2107 4.89575 29.7067 4.82375C29.2891 4.76615 28.8715 4.83815 28.4971 5.03975C28.0363 5.27015 27.7483 5.64455 27.6331 6.14855C27.5899 6.35015 27.5899 6.53735 27.5611 6.66695Z" fill="white"/>
<path d="M13.5507 12.1102C14.2131 12.859 14.8467 13.6078 15.5091 14.371C15.5235 14.3134 15.5379 14.2846 15.5379 14.2558C15.5379 14.1694 15.5379 14.083 15.5379 13.9966C15.5667 12.8014 15.6099 11.5918 15.6387 10.3966C15.6387 10.3534 15.6387 10.3246 15.6531 10.267C16.0851 9.8926 16.5171 9.5182 16.9491 9.1582C16.9635 9.1582 16.9779 9.1582 16.9923 9.1582C17.0211 9.3454 17.0067 9.8782 16.9347 10.9582C16.8915 11.5486 16.8771 12.139 16.8483 12.7438C16.9203 12.7726 16.9923 12.8014 17.0499 12.8158C18.4755 13.219 19.9011 13.6366 21.3123 14.0398C21.3987 14.0686 21.4707 14.083 21.5571 14.1262C21.4419 14.2702 20.4771 15.1198 20.2467 15.2782C19.0947 14.8894 17.9427 14.5006 16.7763 14.1118C16.7619 14.1694 16.7475 14.2126 16.7475 14.2558C16.7187 14.7022 16.7043 15.1486 16.6755 15.595C16.6755 15.6958 16.7187 15.7678 16.7763 15.8398C17.1219 16.243 17.4819 16.6462 17.8275 17.0494C17.8851 17.1214 17.9571 17.1646 17.9859 17.2654C17.6691 17.5534 17.3379 17.8414 16.9923 18.1294C16.9491 18.1006 16.9203 18.0574 16.8915 18.0286C16.2003 17.251 12.6723 13.1758 12.5283 12.9742C12.6291 12.8734 12.7443 12.787 12.8595 12.6718C12.9603 12.571 13.0755 12.4846 13.1763 12.3982C13.3059 12.3118 13.4211 12.211 13.5507 12.1102Z" fill="white"/>
<path d="M58.0462 11.0877C57.8734 11.3613 57.5134 11.8365 57.3694 11.9517C56.8798 11.5917 56.3902 11.2173 55.915 10.8573C55.4254 10.4973 54.9646 10.1229 54.475 9.77733C54.3022 9.95013 53.6398 10.8429 53.5534 11.0013C54.4462 11.6781 55.3534 12.3549 56.2606 13.0461C56.0302 13.3485 55.8142 13.6365 55.5982 13.9389C55.5406 13.8957 55.483 13.8669 55.4398 13.8381C54.6766 13.2621 53.899 12.6717 53.1214 12.0957C53.035 12.0237 52.9486 11.9517 52.8478 11.9085C52.4734 12.3981 52.099 12.8877 51.7246 13.3917C51.7822 13.4493 51.8398 13.4925 51.8974 13.5357C52.7902 14.2125 53.683 14.8893 54.5758 15.5661C54.6334 15.6093 54.6766 15.6525 54.7342 15.6957C54.619 15.8973 54.2014 16.4589 54.0574 16.5885C52.7182 15.5805 51.379 14.5725 50.0398 13.5501C50.011 13.5357 49.9966 13.5069 49.9678 13.4781C49.9822 13.4493 49.9966 13.4205 50.011 13.3917C51.3502 11.6205 52.6894 9.84933 54.0142 8.09253C54.043 8.07813 54.0574 8.07812 54.0574 8.07812C54.0574 8.07812 54.0718 8.07813 54.0718 8.09253C54.1006 8.10693 54.1438 8.13573 54.1726 8.16453C55.4542 9.12933 56.7214 10.0941 58.003 11.0589C58.0174 11.0445 58.0318 11.0589 58.0462 11.0877Z" fill="white"/>
<path d="M50.573 8.25088C50.1554 8.10688 49.7522 7.96288 49.3346 7.80448C49.3346 7.73248 49.3346 7.66048 49.349 7.58848C49.3634 7.44448 49.3634 7.31488 49.3346 7.17088C49.3058 6.99808 49.2194 6.83968 49.0754 6.73888C48.701 6.42208 48.269 6.26368 47.7794 6.26368C47.7074 6.26368 47.621 6.27808 47.549 6.29248C47.2754 6.35008 47.0882 6.65248 47.189 6.96928C47.2322 7.09888 47.3042 7.21408 47.405 7.30048C47.5778 7.45888 47.7362 7.60288 47.9234 7.74688C48.2402 7.99168 48.557 8.23648 48.8738 8.48128C49.0322 8.61088 49.1906 8.75488 49.3346 8.91328C49.6946 9.30208 49.8962 9.76288 49.853 10.3101C49.7522 11.3901 49.0178 12.0381 48.2834 12.2109C47.981 12.2829 47.693 12.2829 47.3906 12.2253C46.6562 12.0957 45.9938 11.8221 45.4034 11.3757C44.957 11.0301 44.6546 10.5981 44.5682 10.0365C44.4962 9.60448 44.525 9.17248 44.669 8.72608C44.8994 8.75488 45.0866 8.84128 45.3026 8.89888C45.5042 8.95648 45.7058 9.01408 45.9074 9.08608C45.9362 9.20128 45.9074 9.30208 45.9074 9.40288C45.9074 9.53248 45.9074 9.66208 45.9074 9.80608C45.9362 10.1373 46.0946 10.4109 46.3538 10.6125C46.685 10.8717 47.0738 11.0301 47.5058 11.0445C47.7362 11.0589 47.9522 11.0157 48.1538 10.8861C48.413 10.7133 48.5426 10.4109 48.4706 10.1373C48.4418 10.0221 48.3842 9.90688 48.3122 9.82048C48.197 9.70528 48.0818 9.57568 47.9522 9.47488C47.6498 9.23008 47.3474 8.99968 47.0306 8.76928C46.757 8.56768 46.5122 8.33728 46.2962 8.07808C46.0658 7.80448 45.9218 7.48768 45.8642 7.12768C45.7922 6.63808 45.9074 6.20608 46.1954 5.81728C46.613 5.25568 47.2034 5.02528 47.8946 5.09728C48.6578 5.16928 49.349 5.47168 49.9682 5.93248C50.3282 6.19168 50.573 6.53728 50.7026 6.96928C50.8178 7.38688 50.8034 7.79008 50.6594 8.19328C50.6162 8.20768 50.5874 8.22208 50.573 8.25088Z" fill="white"/>
<path d="M9.84987 28.7424C10.2963 29.0736 10.7283 29.3904 11.1603 29.7216C11.0451 30.1824 10.9011 30.6144 10.7715 31.0608C10.6851 31.0608 10.6275 31.0032 10.5843 30.96C9.69147 30.2688 8.79867 29.5776 7.90587 28.8864C7.01307 28.1952 6.12027 27.504 5.22747 26.8128C5.15547 26.7552 5.08347 26.6976 4.99707 26.6256C5.11227 26.1504 5.25627 25.704 5.40027 25.2432C5.55867 25.2288 5.70267 25.2 5.84667 25.1856C6.26427 25.1568 6.68187 25.1136 7.08507 25.0704C7.66107 25.0128 8.23707 24.9552 8.81307 24.8976C9.21627 24.8544 9.63387 24.8256 10.0371 24.7824C10.4691 24.7392 10.9011 24.696 11.3187 24.6672C11.7075 24.6384 12.0819 24.5952 12.4707 24.5664C12.5283 24.5664 12.5859 24.5664 12.6579 24.5664C12.6435 24.7536 12.3555 25.6896 12.2547 25.9632C11.7219 26.0352 11.1747 26.0496 10.6131 26.1072C10.4691 26.5392 10.3539 26.9856 10.2243 27.4176C10.1091 27.864 9.97947 28.296 9.84987 28.7424ZM8.87067 27.9936C9.05787 27.4032 9.21627 26.8272 9.38907 26.2512C9.24507 26.2368 7.35867 26.3376 6.91227 26.3952C6.85467 26.3952 6.81147 26.4096 6.75387 26.424C6.91227 26.5536 8.55387 27.7776 8.87067 27.9936Z" fill="white"/>
<path d="M58.8525 22.3198C61.2861 22.2622 63.7053 22.2046 66.1245 22.147C66.3117 22.579 66.4845 23.011 66.6573 23.443C66.6429 23.5438 66.5853 23.587 66.5277 23.6302C65.8365 24.3214 65.1309 24.9982 64.4253 25.6894C63.4893 26.611 62.5533 27.5182 61.6173 28.4398C61.5597 28.4974 61.5165 28.5406 61.4445 28.5982C61.3437 28.4686 61.3005 28.3102 61.2429 28.1662C61.1709 28.0222 61.1133 27.8638 61.0557 27.7198C60.9981 27.5758 60.9405 27.4318 60.8829 27.3022C60.9117 27.2014 60.9837 27.1582 61.0413 27.1006C61.3149 26.827 61.6173 26.5678 61.8909 26.2798C61.9485 26.2222 61.9917 26.1646 62.0493 26.1214C62.0061 25.9342 61.1277 23.8318 60.9981 23.587C60.4653 23.6014 59.9325 23.6302 59.3997 23.659C59.2989 23.4718 58.9101 22.5502 58.8525 22.3198ZM62.9709 25.243C63.0429 25.171 63.1149 25.1278 63.1581 25.0702C63.2589 24.9694 63.3597 24.883 63.4749 24.7822C63.9213 24.3646 64.3677 23.947 64.8141 23.5294C64.8429 23.5006 64.9005 23.4718 64.8717 23.4142C64.0221 23.4574 63.1581 23.4862 62.2941 23.5294C62.2941 23.7022 62.7405 24.811 62.9709 25.243Z" fill="white"/>
<path d="M7.40137 20.2462C7.48777 20.0734 7.94857 19.3246 8.12137 19.123C8.17897 19.1518 8.25097 19.195 8.30857 19.2382C9.25897 19.843 10.2238 20.4622 11.1886 21.067C11.4622 21.2398 11.7502 21.4126 12.0382 21.571C12.2254 21.6862 12.4414 21.7294 12.6718 21.7294C12.9454 21.715 13.1758 21.6286 13.3774 21.4414C13.6366 21.211 13.8094 20.9374 13.9246 20.6062C14.083 20.1598 13.9678 19.7422 13.5934 19.4542C13.291 19.2238 12.9742 19.0078 12.643 18.7918C11.6926 18.187 10.7422 17.5822 9.79177 16.963C9.71977 16.9198 9.63337 16.891 9.59017 16.819C9.66217 16.6462 10.1518 15.883 10.3102 15.6958C10.339 15.7102 10.3822 15.739 10.4254 15.7534C11.5198 16.4446 12.6142 17.1502 13.7086 17.8558C13.9678 18.0286 14.2126 18.2158 14.4718 18.403C14.6302 18.5182 14.7742 18.6622 14.9038 18.835C15.235 19.2526 15.3358 19.7278 15.2638 20.2462C15.235 20.491 15.163 20.7358 15.0622 20.9662C14.803 21.5566 14.4718 22.075 14.011 22.5214C13.6078 22.9102 13.1182 23.1118 12.5422 23.1118C12.2974 23.1118 12.067 23.0542 11.8366 22.9534C11.4766 22.8094 11.1454 22.6222 10.8142 22.4206C9.90697 21.8446 8.99977 21.2686 8.09257 20.6926C7.90537 20.5774 7.70377 20.4478 7.51657 20.3326C7.47337 20.3038 7.43017 20.2606 7.40137 20.2462Z" fill="white"/>
<path d="M21.0533 8.02047C20.7365 8.16447 20.4629 8.32287 20.1605 8.48127C19.8725 8.63967 19.5701 8.78367 19.2965 8.92767C19.1813 8.81247 18.8933 8.27967 18.7637 7.94847C18.7925 7.93407 18.8213 7.90527 18.8501 7.87647C20.3765 7.08447 21.8885 6.29247 23.4149 5.48607C23.4437 5.47167 23.4725 5.45727 23.5157 5.44287C23.5445 5.47167 23.5733 5.51487 23.5877 5.54367C23.7461 5.83167 23.8901 6.11967 24.0341 6.39327C24.0053 6.47967 23.9477 6.49407 23.8901 6.50847C23.4149 6.75327 22.9541 6.99807 22.4789 7.25727C22.4213 7.28607 22.3637 7.32927 22.2917 7.35807C22.2917 7.45887 22.3637 7.54527 22.3925 7.61727C23.1845 9.12927 23.9765 10.6413 24.7541 12.1677C24.7829 12.2397 24.8261 12.3117 24.8549 12.3693C24.7109 12.4845 23.9333 12.8877 23.6741 13.0029C23.5301 12.7869 23.4293 12.5421 23.2997 12.3117C23.1701 12.0669 23.0405 11.8221 22.9109 11.5773C22.7957 11.3469 22.6661 11.1021 22.5365 10.8717C22.4213 10.6413 22.2917 10.3965 22.1621 10.1661C22.0469 9.93567 21.9173 9.69087 21.7877 9.46047C21.6581 9.21567 21.5285 8.97087 21.3989 8.72607C21.3125 8.51007 21.1829 8.26527 21.0533 8.02047Z" fill="white"/>
<path d="M42.7967 10.5836C42.7391 10.5836 42.6959 10.5836 42.6671 10.5692C42.2783 10.4684 41.8895 10.4108 41.5151 10.2956C41.5007 10.2668 41.4863 10.2668 41.4863 10.2668C41.4863 10.2668 41.4863 10.2524 41.4863 10.238C41.9759 8.09243 42.4511 5.96124 42.9263 3.81564C42.9263 3.78684 42.9407 3.75804 42.9551 3.72924C42.9551 3.71484 42.9695 3.70044 42.9839 3.68604C43.1423 3.68604 43.9343 3.85884 44.2799 3.95964C44.2799 4.00284 44.2799 4.04604 44.2799 4.08924C43.9199 5.70203 43.5455 7.31484 43.1855 8.92764C43.0703 9.44603 42.9551 9.95003 42.8399 10.4684C42.8111 10.4972 42.8111 10.526 42.7967 10.5836Z" fill="white"/>
<path d="M62.3954 54.1149C62.3954 54.1437 62.3954 54.1581 62.3954 54.1725C62.2226 54.4029 62.0498 54.6189 61.877 54.8493C61.7186 54.8637 61.5602 54.8493 61.4018 54.8349C61.013 54.8061 60.6242 54.7917 60.221 54.7629C59.933 54.7485 59.717 54.8493 59.5442 55.0797C59.4866 55.1517 59.4434 55.2237 59.3858 55.2957C59.8178 55.6557 60.2642 55.9725 60.6818 56.3181C60.5954 56.4909 60.365 56.8077 60.2066 56.9229C60.0194 56.8221 57.197 54.6045 57.0674 54.4749C57.0818 54.4461 57.1106 54.4029 57.1394 54.3597C57.4562 53.9565 57.773 53.5389 58.0898 53.1357C58.205 52.9773 58.349 52.8333 58.4786 52.6893C58.5218 52.6317 58.5794 52.5885 58.637 52.5453C58.9106 52.3149 59.2274 52.2573 59.5586 52.3725C59.8466 52.4733 60.0626 52.6461 60.2354 52.8909C60.3938 53.1501 60.4226 53.4237 60.3362 53.7117C60.3074 53.8269 60.2498 53.9421 60.2066 54.0573C60.2354 54.1005 60.2786 54.0717 60.3074 54.0573C60.6098 53.9565 60.9122 53.9421 61.2434 53.9853C61.589 54.0285 61.9346 54.0573 62.2658 54.0861C62.3234 54.1005 62.3666 54.1005 62.3954 54.1149ZM58.8962 54.8637C58.9106 54.8493 58.9394 54.8349 58.9682 54.8061C59.1554 54.5613 59.3426 54.3165 59.5298 54.0717C59.573 54.0141 59.6162 53.9421 59.645 53.8701C59.7602 53.6397 59.7026 53.4093 59.4866 53.2509C59.285 53.0925 59.0546 53.1069 58.8674 53.2797C58.8098 53.3229 58.7666 53.3805 58.7234 53.4381C58.5362 53.6685 58.3634 53.8989 58.1762 54.1293C58.1474 54.1581 58.133 54.2013 58.1042 54.2445C58.3202 54.4461 58.7378 54.7773 58.8962 54.8637Z" fill="white"/>
<path d="M43.1564 65.6781C42.9836 64.7853 42.8108 63.9357 42.638 63.0717C42.8684 62.9709 43.0988 62.9709 43.3292 62.8989C43.3436 62.9421 43.3724 62.9853 43.3868 63.0141C43.5596 63.8925 43.7324 64.7709 43.9052 65.6349C43.9772 65.9949 44.0492 66.3549 44.1212 66.7149C44.1212 66.7437 44.1356 66.7725 44.1356 66.8157C43.8764 66.9021 43.6172 66.9309 43.3724 66.9741C43.2716 66.8733 43.1708 66.7869 43.0844 66.7005C42.998 66.6141 42.9116 66.5133 42.8252 66.4269C42.7388 66.3405 42.6524 66.2397 42.566 66.1533C42.4796 66.0525 42.3788 65.9661 42.2924 65.8653C42.206 65.7789 42.1196 65.6781 42.0332 65.5917C41.9468 65.5053 41.8604 65.4045 41.774 65.3181C41.6876 65.2317 41.6012 65.1309 41.5148 65.0445C41.4284 64.9581 41.3564 64.8573 41.2268 64.7709C41.2988 65.2173 41.3996 65.6349 41.4716 66.0525C41.558 66.4701 41.63 66.8877 41.7164 67.2909C41.6444 67.3629 41.5724 67.3629 41.486 67.3773C41.3996 67.3917 41.3132 67.4061 41.2268 67.4349C41.1548 67.4493 41.0828 67.4925 40.982 67.4493C40.7228 66.1821 40.478 64.9005 40.2188 63.6189C40.2188 63.6045 40.2188 63.5757 40.2332 63.5325C40.4636 63.4893 40.7084 63.4317 40.9532 63.3885C41.0108 63.4461 41.0684 63.4893 41.1116 63.5469C41.702 64.1805 42.2924 64.8285 42.8828 65.4621C42.9836 65.5197 43.0412 65.5917 43.1564 65.6781Z" fill="white"/>
<path d="M14.8175 59.2414C14.6303 59.083 14.4719 58.8814 14.2991 58.723C14.2703 58.6366 14.2991 58.579 14.3135 58.507C14.5295 57.6574 14.7455 56.7934 14.9615 55.9294C14.9759 55.8718 14.9903 55.8142 14.9903 55.7566C14.9183 55.7278 14.9039 55.7854 14.8751 55.8142C14.3279 56.3326 13.7807 56.8654 13.2335 57.3982C13.2047 57.427 13.1615 57.4558 13.1327 57.499C13.0319 57.4414 12.9599 57.3406 12.8735 57.2542C12.7871 57.1678 12.7151 57.0814 12.6143 56.995C12.8447 56.7358 13.1039 56.5198 13.3343 56.275C13.5647 56.0446 13.8095 55.8142 14.0399 55.5838C14.2847 55.3534 14.5295 55.1086 14.7743 54.8782C15.0191 54.6478 15.2495 54.4174 15.4943 54.187C15.6815 54.3454 15.8255 54.5182 15.9839 54.6766C16.0415 54.7342 16.0271 54.8062 16.0127 54.8782C15.9407 55.1374 15.8687 55.3966 15.8111 55.6558C15.6383 56.3182 15.4655 56.9806 15.3071 57.643C15.2927 57.6718 15.2927 57.715 15.2783 57.7582C15.3647 57.7438 15.4079 57.6862 15.4511 57.643C15.8399 57.2686 16.2143 56.8942 16.6031 56.5342C16.7471 56.3902 16.8911 56.2462 17.0351 56.1166C17.0927 56.0734 17.1359 56.0302 17.1935 55.987C17.3663 56.1022 17.5967 56.347 17.6831 56.491C17.5247 56.6638 15.0047 59.1118 14.8175 59.2414Z" fill="white"/>
<path d="M10.0079 50.9038C10.1951 50.8606 10.3103 50.7598 10.4399 50.7022C10.5695 50.6446 10.6847 50.5726 10.8143 50.5006C10.9439 50.4286 11.0735 50.3566 11.2031 50.299C11.3183 50.227 11.4479 50.1694 11.5775 50.0974C11.7071 50.0254 11.8367 49.9534 11.9807 49.8958C12.0959 49.8238 12.2255 49.7518 12.3551 49.7086C12.4703 49.8238 12.6143 50.0974 12.7007 50.3134C12.7007 50.3134 12.7007 50.3278 12.6863 50.3278L12.6719 50.3422C11.5631 50.9326 10.4543 51.523 9.34545 52.099C9.30225 52.1134 9.25905 52.1422 9.21585 52.1566C9.20145 52.1566 9.18705 52.1566 9.15825 52.1566C9.04305 51.9406 8.91345 51.7102 8.79825 51.4654C9.30225 50.6014 9.82065 49.723 10.3391 48.8446C10.2383 48.8302 10.1807 48.8734 10.1231 48.9166C9.50385 49.2478 8.87025 49.579 8.25105 49.9102C8.17905 49.939 8.10705 49.9822 8.03505 50.0254C7.89105 49.8238 7.80465 49.6078 7.68945 49.4062C7.74705 49.3774 7.77585 49.3342 7.83345 49.3198C8.91345 48.7438 9.99345 48.1678 11.0735 47.6062C11.1167 47.5774 11.1743 47.563 11.2319 47.5342C11.3759 47.7502 11.4767 47.9806 11.6063 48.211C11.4335 48.5134 11.2607 48.8014 11.0879 49.1038C10.9151 49.4062 10.7423 49.6942 10.5695 49.9966C10.3823 50.2702 10.1951 50.5726 10.0079 50.9038Z" fill="white"/>
<path d="M8.64029 43.6175C8.53949 43.3583 8.43869 43.1279 8.33789 42.8975C8.38109 42.8543 8.40989 42.8255 8.45309 42.7967C8.6979 42.6095 8.81309 42.3647 8.78429 42.0623C8.76989 41.7023 8.6403 41.3711 8.33789 41.1407C8.0931 40.9679 7.81949 40.9103 7.53149 40.9391C7.27229 40.9535 7.01309 41.0111 6.78269 41.1119C6.71069 41.1407 6.65309 41.1695 6.59549 41.1983C6.12029 41.4431 5.88989 41.9183 6.04829 42.5087C6.13469 42.8255 6.30749 43.0703 6.53789 43.2719C6.73949 43.2719 6.91229 43.2287 7.05629 43.1567C7.04189 42.8687 6.92669 42.5807 6.89789 42.2927C6.92669 42.2783 6.95549 42.2639 6.96989 42.2495C7.14269 42.2207 7.31549 42.1775 7.50269 42.1343C7.58909 42.3071 7.60349 42.5087 7.64669 42.6815C7.68989 42.8687 7.73309 43.0703 7.76189 43.2575C7.79069 43.4447 7.83389 43.6175 7.87709 43.8191C7.80509 43.8335 7.76189 43.8623 7.70429 43.8767C7.28669 43.9631 6.86909 44.0495 6.46589 44.1359C6.35069 44.1647 6.27869 44.1359 6.19229 44.0639C5.76029 43.6463 5.45789 43.1423 5.34269 42.5519C5.28509 42.2495 5.27069 41.9615 5.34269 41.6591C5.42909 41.2271 5.65949 40.8815 6.00509 40.6079C6.50909 40.2335 7.08509 40.0607 7.70429 40.1183C8.55389 40.1903 9.11549 40.7087 9.3459 41.3999C9.44669 41.7167 9.50429 42.0335 9.48989 42.3791C9.44669 42.9407 9.17309 43.3439 8.64029 43.6175Z" fill="white"/>
<path d="M65.9807 38.1885C66.0383 38.1885 66.0815 38.1885 66.1391 38.1885C66.5711 38.2461 66.9887 38.318 67.4207 38.3756C67.5215 38.39 67.5791 38.4332 67.6223 38.5196C67.7231 38.7068 67.8095 38.9229 67.8527 39.1245C67.9823 39.6573 67.9823 40.2044 67.7807 40.7228C67.5215 41.3852 67.0463 41.7885 66.3551 41.9037C65.7647 42.0045 65.2175 41.9037 64.6991 41.6157C64.2383 41.3565 63.9359 40.9676 63.8063 40.4492C63.7343 40.1612 63.7487 39.8732 63.7919 39.5852C63.8207 39.3692 63.8783 39.1532 63.9791 38.9516C64.1663 38.5484 64.4687 38.2748 64.9151 38.1452C65.0015 38.1308 65.0879 38.1165 65.1599 38.1021C65.2175 38.2605 65.2463 38.6349 65.2175 38.8941C65.1743 38.9085 65.1167 38.9228 65.0735 38.9516C64.7855 39.0524 64.5983 39.2541 64.5119 39.5421C64.4831 39.6573 64.4543 39.7724 64.4543 39.8877C64.4399 40.3772 64.6559 40.7516 65.1167 40.9532C65.3183 41.0396 65.5487 41.0972 65.7791 41.1116C66.0095 41.126 66.2255 41.1405 66.4559 41.0685C66.8303 40.9677 67.0751 40.7229 67.1903 40.3485C67.3055 39.9309 67.2335 39.5276 67.0319 39.1532C66.8591 39.1244 66.7007 39.0956 66.5279 39.0812C66.4415 39.3836 66.4559 39.6861 66.3695 39.9597C66.1823 39.9741 65.8943 39.9308 65.7503 39.8732C65.7359 39.686 65.9087 38.4477 65.9807 38.1885Z" fill="white"/>
<path d="M48.6578 64.7565C48.5858 64.8573 48.5138 64.9725 48.4418 65.0733C48.0242 65.5629 47.5058 65.9085 46.8578 66.0237C46.1522 66.1677 45.5474 65.9949 45.0866 65.4333C44.6402 64.9149 44.4242 64.3101 44.4818 63.6045C44.525 63.1149 44.7266 62.7117 45.101 62.4093C45.5618 62.0349 46.0946 61.8477 46.685 61.8621C47.1458 61.8765 47.5058 62.1069 47.765 62.4813C47.7794 62.4957 47.765 62.5101 47.7794 62.5389C47.5778 62.6541 47.3618 62.7837 47.1314 62.9277C47.0882 62.8845 47.045 62.8557 47.0162 62.8125C46.8146 62.6253 46.5698 62.5533 46.2818 62.5821C46.1234 62.5965 45.9794 62.6541 45.8354 62.7261C45.4754 62.9277 45.2738 63.2301 45.2738 63.6333C45.2738 64.1229 45.4322 64.5549 45.7346 64.9437C46.037 65.3181 46.4402 65.4189 46.901 65.3037C47.2466 65.2173 47.4914 65.0013 47.7074 64.7277C47.7506 64.6701 47.765 64.6269 47.7506 64.5549C47.7074 64.4253 47.6498 64.2957 47.6066 64.1517C47.3042 64.2237 47.0306 64.3533 46.7426 64.4397C46.6418 64.2525 46.5842 64.0509 46.5122 63.8493C46.685 63.7485 46.8578 63.7053 47.0306 63.6477C47.2178 63.5757 47.3906 63.5037 47.5778 63.4461C47.7506 63.3885 47.9234 63.3021 48.1106 63.2589C48.3122 63.7629 48.4706 64.2525 48.6578 64.7565Z" fill="white"/>
<path d="M56.7935 59.76C56.4623 59.76 56.1743 59.6736 55.9007 59.5152C55.4111 59.2272 55.0367 58.8384 54.7919 58.3344C54.4751 57.6864 54.5327 57.0672 54.9647 56.4768C55.1663 56.2176 55.3967 56.0016 55.6847 55.8288C56.2607 55.4832 56.8655 55.4832 57.4559 55.8C57.9455 56.0736 58.3199 56.4624 58.5791 56.9664C58.8959 57.5856 58.8527 58.1904 58.4639 58.7664C58.2191 59.1264 57.8879 59.4144 57.4847 59.5872C57.2687 59.7024 57.0239 59.76 56.7935 59.76ZM57.9887 57.9024C58.0031 57.744 57.9599 57.5856 57.8879 57.4272C57.6863 57.024 57.3839 56.7072 57.0095 56.4768C56.9375 56.4336 56.8655 56.4048 56.7935 56.3904C56.5775 56.3184 56.3615 56.3184 56.1455 56.3904C55.6415 56.5632 55.3391 57.0384 55.3967 57.5568C55.4111 57.7152 55.4687 57.8448 55.5407 57.9744C55.7135 58.2912 55.9583 58.5504 56.2751 58.752C56.4335 58.8672 56.6207 58.9248 56.8223 58.9536C57.4703 59.04 58.0319 58.4496 57.9887 57.9024Z" fill="white"/>
<path d="M5.52963 39.5278C5.31363 39.5422 5.11203 39.5566 4.89603 39.5566C4.83843 39.211 4.83843 38.8798 4.80963 38.5486C4.78083 38.2174 4.75203 37.8862 4.73763 37.555C4.72323 37.2238 4.66563 36.8926 4.68003 36.5326C4.76643 36.4894 4.86723 36.4894 4.95363 36.475C5.47203 36.4462 6.00483 36.403 6.52323 36.3742C7.07043 36.331 7.61763 36.2878 8.16483 36.259C8.32323 36.2446 8.49603 36.2446 8.66883 36.2446C8.72643 36.5758 8.72643 36.907 8.75523 37.2382C8.78403 37.555 8.81283 37.8862 8.82723 38.203C8.84163 38.5342 8.89923 38.851 8.88483 39.1966C8.66883 39.2254 8.46723 39.2542 8.23683 39.2398C8.16483 38.5198 8.13603 37.8286 8.06403 37.1086C8.02083 37.0942 7.97763 37.0798 7.93443 37.0942C7.68963 37.1086 7.44483 37.123 7.20003 37.1518C7.20003 37.2094 7.18563 37.2526 7.18563 37.3102C7.21443 37.6702 7.24323 38.0446 7.25763 38.419C7.27203 38.6638 7.28643 38.9086 7.31523 39.1678C7.09923 39.211 6.89763 39.2398 6.66723 39.2254C6.65283 39.1678 6.63843 39.1102 6.63843 39.0382C6.60963 38.5054 6.56643 37.9726 6.52323 37.4398C6.52323 37.3678 6.50883 37.2958 6.49443 37.2238C6.30723 37.1806 6.13443 37.2382 5.94723 37.2382C5.76003 37.2382 5.58723 37.2526 5.41443 37.2958C5.38563 37.5406 5.44323 37.7854 5.44323 38.0302C5.45763 38.275 5.47203 38.5342 5.50083 38.779C5.50083 39.0094 5.55843 39.2542 5.52963 39.5278Z" fill="white"/>
<path d="M9.92198 44.0493C10.2676 44.9853 10.6132 45.9069 10.9444 46.8141C10.9156 46.8429 10.9012 46.8573 10.8868 46.8717C10.714 46.9437 10.5412 47.0013 10.354 47.0733C10.2388 46.8429 10.1812 46.6269 10.0948 46.4109C10.0084 46.1805 9.92198 45.9645 9.83558 45.7341C9.74918 45.5181 9.67718 45.3021 9.59078 45.0573C9.43238 45.0717 9.30278 45.1437 9.15878 45.1869C9.01478 45.2301 8.88518 45.2877 8.72678 45.3453C8.82758 45.6765 8.95718 45.9933 9.07238 46.2957C9.17318 46.6125 9.30278 46.9005 9.40358 47.2173C9.21638 47.3325 8.98598 47.4189 8.79878 47.4333C8.55398 46.8285 8.35238 46.2093 8.10758 45.5901C7.90598 45.6045 7.74758 45.7053 7.57478 45.7629C7.40198 45.8205 7.22918 45.8781 7.07078 45.9645C7.31558 46.6701 7.58918 47.3613 7.83398 48.0525C7.64678 48.1677 7.43078 48.2253 7.24358 48.2829C7.15718 48.1101 6.30758 45.8637 6.19238 45.4605C6.19238 45.4461 6.20678 45.4317 6.22118 45.4317C7.43078 44.9853 8.65478 44.5245 9.92198 44.0493Z" fill="white"/>
<path d="M63.9357 50.3711C64.1229 50.4863 64.2957 50.5871 64.4541 50.6879C64.4541 50.7167 64.4685 50.7167 64.4685 50.7311V50.7455C63.9789 51.5663 63.5037 52.4015 63.0285 53.2223C63.0141 53.2511 62.9997 53.2799 62.9709 53.2943C62.8845 53.3087 62.8269 53.2511 62.7549 53.2079C62.0205 52.7759 61.2717 52.3439 60.5517 51.9119C60.2637 51.7391 59.9757 51.5807 59.7021 51.4079C59.6445 51.3791 59.5869 51.3359 59.5293 51.3071C59.5293 51.2927 59.5293 51.2783 59.5293 51.2783C59.5293 51.2639 59.5293 51.2639 59.5293 51.2639C60.0045 50.4575 60.4797 49.6367 60.9549 48.8303C60.9693 48.8159 60.9837 48.8015 61.0125 48.7583C61.2141 48.8303 61.3725 48.9599 61.5741 49.0607C61.4877 49.2479 61.3869 49.3919 61.3005 49.5503C61.2141 49.7087 61.1133 49.8671 61.0269 50.0255C60.9405 50.1695 60.8541 50.3279 60.7677 50.4719C60.6813 50.6303 60.5805 50.7887 60.4941 50.9471C60.5661 51.0479 60.6669 51.0767 60.7389 51.1199C60.8253 51.1775 60.8973 51.2207 60.9837 51.2639C61.0701 51.3071 61.1565 51.3791 61.2573 51.4079C61.4013 51.2351 61.4877 51.0335 61.6029 50.8463C61.7181 50.6591 61.8333 50.4575 61.9485 50.2559C62.0637 50.0687 62.1645 49.8815 62.2941 49.6799C62.4957 49.7807 62.6829 49.8815 62.8557 50.0111C62.5245 50.5871 62.1933 51.1631 61.8621 51.7103C61.9773 51.8255 62.2941 52.0415 62.7837 52.2863C62.8557 52.2719 62.8701 52.1999 62.8989 52.1567C63.2013 51.6383 63.5037 51.1199 63.8205 50.5871C63.8349 50.5151 63.8925 50.4431 63.9357 50.3711Z" fill="white"/>
<path d="M51.1635 60.8109C50.9619 60.9405 50.7459 61.0701 50.5155 61.1997C50.4579 61.1421 50.4003 61.0989 50.3427 61.0413C50.1987 60.9261 50.0403 60.8973 49.8819 60.9261C49.6371 60.9837 49.4355 61.0989 49.2627 61.2717C49.2339 61.3149 49.1907 61.3581 49.1619 61.4013C49.0467 61.6317 49.1619 61.8621 49.4211 61.8909C49.5075 61.9053 49.5939 61.8909 49.6803 61.8765C49.8963 61.8333 50.1123 61.7757 50.3283 61.7325C50.5587 61.6893 50.7891 61.6317 51.0195 61.6173C51.6243 61.5741 52.0275 61.9485 52.2003 62.4669C52.3299 62.8557 52.2435 63.2301 51.9987 63.5469C51.8835 63.6909 51.7395 63.8205 51.5811 63.9213C51.2643 64.1229 50.9331 64.2957 50.5587 64.3533C50.2851 64.3965 50.0259 64.3533 49.7811 64.2237C49.5363 64.0941 49.3491 63.9213 49.2051 63.6765C49.4067 63.5181 49.6083 63.4029 49.8243 63.2589C49.8675 63.3021 49.9107 63.3453 49.9539 63.3741C50.2419 63.6477 50.5443 63.7053 50.9043 63.5325C51.0627 63.4605 51.2067 63.3741 51.3219 63.2301C51.4371 63.0861 51.4803 62.9277 51.4659 62.7549C51.4515 62.5677 51.3075 62.4381 51.1347 62.4093C51.0483 62.3949 50.9475 62.4093 50.8611 62.4237C50.5875 62.4813 50.3139 62.5533 50.0403 62.6109C49.8531 62.6541 49.6515 62.6829 49.4643 62.6829C48.9891 62.6685 48.6003 62.3661 48.4563 61.9053C48.3843 61.6317 48.3987 61.3725 48.5427 61.1277C48.6003 61.0269 48.6579 60.9405 48.7299 60.8685C49.1187 60.4797 49.5651 60.2493 50.1123 60.1773C50.5731 60.1197 51.0195 60.4077 51.1923 60.7533C51.1635 60.7821 51.1635 60.7965 51.1635 60.8109Z" fill="white"/>
<path d="M19.9156 59.6879C19.714 59.5439 19.5124 59.3999 19.3108 59.2559C19.3252 59.1839 19.354 59.1263 19.3684 59.0687C19.426 58.8527 19.3972 58.6511 19.2388 58.4783C19.1236 58.3487 18.9796 58.2335 18.8068 58.1615C18.706 58.1039 18.6052 58.0895 18.49 58.1039C18.3316 58.1183 18.2308 58.2191 18.2164 58.3775C18.202 58.4639 18.2308 58.5503 18.274 58.6223C18.346 58.7519 18.4324 58.8815 18.5188 58.9967C18.6484 59.1695 18.778 59.3423 18.9076 59.5295C18.9796 59.6303 19.0516 59.7311 19.1092 59.8463C19.3684 60.3503 19.282 60.7823 18.9364 61.1855C18.6916 61.4735 18.1876 61.7183 17.6548 61.5023C17.1796 61.3151 16.7908 61.0271 16.4884 60.6095C16.1428 60.1487 16.1572 59.5007 16.5028 59.0255C16.6612 59.0831 16.978 59.2703 17.122 59.4287C17.0932 59.5439 17.05 59.6447 17.0212 59.7599C16.9636 59.9903 17.0212 60.1919 17.1652 60.3791C17.3236 60.5807 17.5252 60.7247 17.7844 60.7967C17.914 60.8255 18.0292 60.8111 18.1588 60.7823C18.3604 60.7103 18.4756 60.5087 18.418 60.2927C18.3892 60.1919 18.346 60.1055 18.2884 60.0191C18.1876 59.8607 18.058 59.7167 17.9572 59.5727C17.8276 59.3855 17.6836 59.1839 17.5684 58.9823C17.4676 58.8095 17.41 58.6079 17.4244 58.3919C17.4388 57.8735 17.8708 57.4127 18.4036 57.3839C18.5908 57.3695 18.778 57.3983 18.9508 57.4847C19.354 57.6575 19.6852 57.9311 19.9588 58.2767C20.074 58.4351 20.1604 58.6079 20.2036 58.8095C20.2612 59.1119 20.1892 59.3999 20.002 59.6591C19.9588 59.6591 19.9444 59.6591 19.9156 59.6879Z" fill="white"/>
<path d="M65.7218 45.4462C65.9666 45.6334 66.2114 45.8206 66.4562 45.9934C66.4562 46.1662 66.3554 46.5262 66.2402 46.771C66.2258 46.771 66.2258 46.771 66.2114 46.771C66.2114 46.771 66.197 46.771 66.197 46.7566C65.117 45.9214 64.0514 45.1006 62.9858 44.2654C62.9426 44.2366 62.8994 44.1934 62.8418 44.1502C62.9138 43.8766 62.9858 43.6174 63.0722 43.3438C63.389 43.2862 67.133 42.9406 67.349 42.955C67.3778 43.0558 67.3202 43.1278 67.3058 43.2142C67.2914 43.3006 67.2482 43.3726 67.2338 43.459C67.205 43.5454 67.1762 43.6318 67.1474 43.7326C66.989 43.7902 66.8162 43.7758 66.6578 43.7902C66.4994 43.8046 66.341 43.819 66.197 43.8334C66.1106 44.0206 65.8082 45.043 65.7218 45.4462ZM65.4194 43.9486C64.973 43.9486 64.5122 44.0062 64.0658 44.0206C64.0082 44.0206 63.9506 44.0062 63.9218 44.0638C63.9218 44.0782 63.9218 44.0926 63.9362 44.107C64.2962 44.3806 64.6706 44.6542 65.045 44.9278C65.0738 44.9422 65.1026 44.9566 65.1314 44.971C65.2178 44.7694 65.405 44.1358 65.4194 43.9486Z" fill="white"/>
<path d="M25.92 66.024C25.6464 65.9232 25.4016 65.808 25.1424 65.7072C25.1136 65.376 25.1856 65.0592 25.1568 64.7424C24.9984 64.6416 24.0048 64.2096 23.6736 64.0944C23.4432 64.296 23.2416 64.5552 23.0112 64.7712C22.8816 64.7568 22.7664 64.6848 22.6368 64.6272C22.5216 64.5696 22.392 64.5264 22.248 64.4544C22.2768 64.3968 22.3056 64.3536 22.3488 64.3248C22.9104 63.7488 23.472 63.1728 24.048 62.5968C24.3936 62.2512 24.7392 61.8912 25.0848 61.5312C25.1424 61.4736 25.2 61.4304 25.2576 61.3584C25.5168 61.4736 25.7616 61.5744 26.0064 61.6752C26.0352 61.9632 25.9632 65.6784 25.92 66.024ZM25.2 64.008C25.2288 63.4896 25.2576 63.0144 25.272 62.5248C25.272 62.496 25.272 62.4672 25.2576 62.4096C25.1424 62.4816 25.0848 62.568 25.0128 62.6256C24.9408 62.6976 24.8688 62.7696 24.8112 62.856C24.7392 62.9424 24.6672 63.0144 24.5808 63.1008C24.5088 63.1728 24.4368 63.2448 24.3792 63.3312C24.3072 63.4032 24.2352 63.4752 24.1776 63.576C24.5088 63.7344 24.8256 63.864 25.2 64.008Z" fill="white"/>
<path d="M12.0098 56.2753C11.837 56.0305 11.6786 55.8145 11.5202 55.5985C11.6786 55.3105 11.8658 55.0657 12.0242 54.7777C11.9522 54.6193 11.2898 53.6977 11.0738 53.4529C10.9154 53.4817 10.757 53.5393 10.613 53.5681C10.4546 53.6113 10.3106 53.6545 10.1666 53.6833C10.0226 53.5393 9.77781 53.2081 9.69141 53.0209C9.70581 53.0065 9.72021 52.9921 9.74901 52.9921C11.1026 52.6321 12.4562 52.2721 13.8242 51.9121C13.997 52.1425 14.1554 52.3585 14.3138 52.5889C14.2994 52.6321 14.285 52.6753 14.2562 52.7041C13.5362 53.8417 12.8162 54.9793 12.0962 56.1313C12.0674 56.1889 12.0386 56.2177 12.0098 56.2753ZM11.7794 53.2801C11.9954 53.5681 12.197 53.8417 12.3842 54.1009C12.3842 54.1153 12.413 54.1153 12.4274 54.1153C12.6578 53.8273 13.1906 53.0065 13.2482 52.8481C13.0466 52.8625 11.9666 53.1793 11.7794 53.2801Z" fill="white"/>
<path d="M54.2591 59.2847C54.4031 59.4575 54.5183 59.6303 54.6479 59.8031C54.6047 59.8319 54.5759 59.8751 54.5327 59.9039C54.1871 60.1487 53.8415 60.3935 53.5103 60.6383C53.4527 60.6815 53.3951 60.7247 53.3087 60.7967C53.6255 61.2719 53.9711 61.7039 54.2879 62.1647C54.2015 62.2799 54.0863 62.3375 53.9855 62.4095C53.8847 62.4815 53.7839 62.5535 53.6831 62.6111C53.6543 62.5967 53.6543 62.5967 53.6399 62.5967L53.6255 62.5823C52.8911 61.5599 52.1567 60.5375 51.4223 59.5151C51.4079 59.4863 51.3791 59.4431 51.3503 59.4143C51.3359 59.3999 51.3359 59.3855 51.3359 59.3567C52.0559 58.8383 52.7903 58.3199 53.5247 57.7871C53.6255 57.8591 53.6687 57.9599 53.7407 58.0463C53.7983 58.1327 53.8559 58.2047 53.9279 58.3055C53.7695 58.4495 53.5823 58.5647 53.4095 58.6943C53.2367 58.8239 53.0495 58.9535 52.8767 59.0831C52.7039 59.1983 52.5311 59.3279 52.3583 59.4575C52.5311 59.7311 52.7183 59.9759 52.9055 60.2351C53.0927 60.1631 53.2223 60.0335 53.3663 59.9327C53.5247 59.8319 53.6687 59.7167 53.8271 59.6015C53.9423 59.5151 54.0863 59.4143 54.2591 59.2847Z" fill="white"/>
<path d="M62.2944 47.4908C62.136 47.8652 61.9776 48.2252 61.8192 48.5852C61.6176 48.5132 61.416 48.4268 61.2432 48.3404C61.272 48.1676 62.3376 45.6764 62.4816 45.4316C62.5824 45.446 62.6832 45.5036 62.784 45.5324C62.8704 45.5756 62.9712 45.6188 63.072 45.662C63.0144 45.8636 62.928 46.022 62.856 46.2092C62.784 46.382 62.712 46.5548 62.64 46.7276C62.6688 46.814 62.7552 46.8284 62.8272 46.8572C63.7056 47.246 64.584 47.6204 65.4624 47.9948C65.5344 48.0236 65.6064 48.0668 65.664 48.0956C65.6496 48.254 65.4912 48.6284 65.3616 48.8156C64.8432 48.614 64.3536 48.3836 63.8352 48.1676C63.3312 47.9372 62.8272 47.7212 62.2944 47.4908Z" fill="white"/>
<path d="M21.7009 60.2785C21.3697 60.0481 21.0241 59.8753 20.6929 59.6449C20.8081 59.4577 20.9089 59.2849 21.0241 59.0977C21.0817 59.1121 21.1105 59.1265 21.1537 59.1553C21.9889 59.6449 22.8097 60.1489 23.6449 60.6385C23.6881 60.6673 23.7169 60.6961 23.7745 60.7249C23.6737 60.8977 23.5729 61.0705 23.4577 61.2577C23.4001 61.2433 23.3569 61.2289 23.3281 61.2001C23.0833 61.0561 22.8385 60.9121 22.5937 60.7681C22.5361 60.7393 22.4929 60.7105 22.4209 60.6817C22.2481 60.9121 22.1329 61.1569 21.9889 61.3873C21.8449 61.6321 21.7009 61.8769 21.5569 62.1217C21.4129 62.3521 21.2833 62.5969 21.1393 62.8273C20.9953 63.0577 20.8657 63.3025 20.7217 63.5329C20.5489 63.4753 20.2033 63.2881 20.0449 63.1297C20.1601 62.8849 20.3185 62.6545 20.4481 62.4241C20.5921 62.1793 20.7361 61.9345 20.8801 61.6897C21.0241 61.4593 21.1537 61.2145 21.2977 60.9841C21.4273 60.7537 21.5713 60.5233 21.7009 60.2785Z" fill="white"/>
<path d="M30.6143 67.2765C30.7871 65.9517 30.9743 64.6557 31.1615 63.3597C31.3055 63.3021 31.4351 63.3741 31.5647 63.3741C31.6799 63.3885 31.8095 63.4029 31.9391 63.4317C31.9391 63.5037 31.9391 63.5613 31.9391 63.6189C31.8095 64.5693 31.6655 65.5197 31.5359 66.4557C31.5215 66.5277 31.5215 66.6141 31.5215 66.7005C31.5935 66.7149 31.6367 66.7437 31.7087 66.7437C32.2127 66.8157 32.7023 66.8877 33.2063 66.9453C33.2927 66.9597 33.3935 66.9741 33.4943 67.0029C33.5519 67.1037 33.4943 67.2189 33.4799 67.3197C33.4655 67.4205 33.4799 67.5357 33.4079 67.6509C33.3791 67.6509 33.3359 67.6509 33.3071 67.6509C32.4143 67.5213 31.5359 67.4061 30.6143 67.2765Z" fill="white"/>
<path d="M29.5631 67.0321C29.3759 67.0177 27.1583 66.4273 26.8703 66.3121C26.8415 66.2401 26.8703 66.1681 26.8991 66.0817C27.1007 65.3329 27.3023 64.5841 27.5039 63.8353C27.6047 63.4609 27.7055 63.0721 27.8207 62.6977C27.8351 62.6257 27.8639 62.5537 27.8927 62.4673C28.1519 62.5249 28.3823 62.5825 28.6271 62.6689C28.6415 62.7553 28.6127 62.8273 28.5839 62.8993C28.3391 63.8209 28.0799 64.7425 27.8351 65.6641C27.8207 65.7217 27.8063 65.7793 27.7919 65.8513C27.8495 65.8657 27.8783 65.8945 27.9215 65.9089C28.4399 66.0529 28.9439 66.1825 29.4623 66.3265C29.5487 66.3409 29.6207 66.3697 29.7215 66.3985C29.6927 66.6433 29.6351 66.8449 29.5631 67.0321Z" fill="white"/>
<path d="M39.7584 67.5936C39.4992 67.6224 39.2544 67.6656 38.9952 67.6656C38.952 67.5504 38.952 67.4208 38.9376 67.3056C38.88 66.6432 38.8224 65.9952 38.7504 65.3472C38.7072 64.8288 38.6496 64.3248 38.6064 63.8064C38.6064 63.7776 38.6064 63.7488 38.6064 63.7056C38.8656 63.648 39.1104 63.6192 39.3696 63.6336C39.4272 63.864 39.4272 64.08 39.456 64.296C39.4848 64.5264 39.4992 64.7424 39.528 64.9728C39.5424 65.1888 39.5568 65.4048 39.5856 65.6352C39.6 65.8512 39.6144 66.0672 39.6432 66.2976C39.6576 66.528 39.7008 66.744 39.7152 66.9744C39.7152 67.1472 39.7584 67.3632 39.7584 67.5936Z" fill="white"/>
<path d="M25.1276 60.3647C25.3292 60.4511 25.502 60.5231 25.6892 60.6095C25.646 60.8255 25.5308 60.9983 25.4588 61.1855C25.2428 61.1423 25.07 61.0415 24.8828 60.9551C24.9404 60.7391 25.0412 60.5663 25.1276 60.3647Z" fill="white"/>
<path d="M26.5391 61.6606C26.3519 61.5742 26.1791 61.5022 25.9775 61.4158C26.0351 61.2142 26.1215 61.027 26.2079 60.8398C26.3087 60.8542 26.3951 60.9118 26.4959 60.9406C26.5967 60.9694 26.6831 61.027 26.7695 61.0558C26.7551 61.243 26.6831 61.4158 26.5391 61.6606Z" fill="white"/>
<path d="M54.8643 55.3968C55.0083 55.224 55.1523 55.0944 55.3107 54.9648C55.4691 55.1088 55.6131 55.2528 55.7283 55.3968C55.7139 55.4256 55.7139 55.44 55.7139 55.4544C55.5843 55.584 55.4547 55.6992 55.3107 55.8432C55.2675 55.8144 55.2387 55.8 55.2099 55.7712C55.0947 55.6416 54.9939 55.5264 54.8643 55.3968Z" fill="white"/>
<path d="M54.4613 55.771C54.6197 55.9294 54.7637 56.059 54.8933 56.2462C54.7493 56.3902 54.6053 56.5198 54.4613 56.6638C54.2741 56.5486 54.1733 56.3758 54.0293 56.2318C54.0725 56.131 54.1589 56.0734 54.2309 56.0014C54.2885 55.9294 54.3605 55.8574 54.4613 55.771Z" fill="white"/>
</g>
<defs>
<clipPath id="clip0_15814_5184">
<rect width="72" height="72" fill="white"/>
</clipPath>
</defs>
</svg>
