<svg width="83" height="20" viewBox="0 0 83 20" fill="none" xmlns="http://www.w3.org/2000/svg">
<g clip-path="url(#clip0_15816_19364)">
<path d="M22.0687 7.08838H30.3146V8.62684H27.0723V17.2753H25.2894V8.62684H22.0615V7.08838H22.0687ZM29.9623 9.89931H31.4864V11.3227H31.5152C31.5655 11.1214 31.6589 10.9273 31.7955 10.7404C31.9321 10.5535 32.0975 10.3738 32.2916 10.2228C32.4857 10.0647 32.7014 9.94244 32.9386 9.84179C33.1758 9.74834 33.4203 9.69801 33.6647 9.69801C33.8516 9.69801 33.9882 9.7052 34.0601 9.71239C34.132 9.71958 34.2039 9.73396 34.283 9.74115V11.3084C34.1679 11.2868 34.0529 11.2724 33.9307 11.258C33.8085 11.2437 33.6934 11.2365 33.5784 11.2365C33.3052 11.2365 33.0464 11.294 32.802 11.4018C32.5576 11.5097 32.3491 11.675 32.1694 11.8835C31.9896 12.0992 31.8459 12.358 31.738 12.6743C31.6302 12.9906 31.5799 13.3501 31.5799 13.7598V17.2681H29.9551V9.89931H29.9623ZM41.7524 17.2753H40.1564V16.2473H40.1277C39.9264 16.6211 39.6316 16.9158 39.2362 17.1387C38.8408 17.3616 38.4382 17.4766 38.0285 17.4766C37.0579 17.4766 36.3534 17.2393 35.9221 16.7577C35.4907 16.276 35.275 15.5499 35.275 14.5794V9.89931H36.8998V14.4212C36.8998 15.0683 37.022 15.5284 37.2736 15.7943C37.518 16.0603 37.8703 16.1969 38.316 16.1969C38.6611 16.1969 38.9415 16.1466 39.1715 16.0388C39.4016 15.9309 39.5885 15.7943 39.7251 15.6146C39.8689 15.4421 39.9695 15.2264 40.0342 14.982C40.0989 14.7376 40.1277 14.4716 40.1277 14.184V9.9065H41.7524V17.2753ZM44.5202 14.9101C44.5705 15.3846 44.7502 15.7153 45.0594 15.9094C45.3757 16.0963 45.7495 16.1969 46.1881 16.1969C46.339 16.1969 46.5116 16.1826 46.7057 16.161C46.8998 16.1394 47.0867 16.0891 47.252 16.0244C47.4246 15.9597 47.5612 15.859 47.6762 15.7296C47.784 15.6002 47.8344 15.4349 47.8272 15.2264C47.82 15.0179 47.7409 14.8454 47.5971 14.716C47.4533 14.5794 47.2736 14.4787 47.0508 14.3925C46.8279 14.3134 46.5763 14.2415 46.2887 14.184C46.0011 14.1265 45.7136 14.0618 45.4188 13.9971C45.1169 13.9324 44.8221 13.8461 44.5418 13.7526C44.2614 13.6592 44.0098 13.5298 43.7869 13.3644C43.564 13.2063 43.3843 12.9978 43.2549 12.7462C43.1183 12.4946 43.0536 12.1854 43.0536 11.8116C43.0536 11.409 43.1543 11.0783 43.3484 10.8051C43.5425 10.5319 43.7941 10.3163 44.0889 10.1509C44.3908 9.98558 44.7215 9.87055 45.0881 9.79866C45.4548 9.73396 45.807 9.69801 46.1377 9.69801C46.5188 9.69801 46.8854 9.74115 47.2305 9.82023C47.5756 9.89931 47.8919 10.0287 48.1722 10.2156C48.4526 10.3954 48.6827 10.6326 48.8696 10.9202C49.0565 11.2077 49.1715 11.56 49.2219 11.9698H47.5252C47.4462 11.5815 47.2736 11.3156 46.9932 11.1862C46.7129 11.0496 46.3894 10.9849 46.0299 10.9849C45.9149 10.9849 45.7783 10.992 45.6201 11.0136C45.462 11.0352 45.3182 11.0711 45.1744 11.1214C45.0378 11.1718 44.9228 11.2509 44.8221 11.3515C44.7287 11.4521 44.6784 11.5815 44.6784 11.7469C44.6784 11.9482 44.7502 12.1064 44.8868 12.2286C45.0234 12.3508 45.2032 12.4514 45.426 12.5377C45.6489 12.6168 45.9005 12.6887 46.1881 12.7462C46.4756 12.8037 46.7704 12.8684 47.0723 12.9331C47.3671 12.9978 47.6546 13.0841 47.9422 13.1775C48.2298 13.271 48.4814 13.4004 48.7042 13.5657C48.9271 13.7311 49.1068 13.9324 49.2434 14.1768C49.38 14.4212 49.4519 14.7304 49.4519 15.0898C49.4519 15.5283 49.3513 15.895 49.15 16.2041C48.9487 16.5061 48.6899 16.7577 48.3735 16.9446C48.0572 17.1315 47.6978 17.2753 47.3096 17.3616C46.9213 17.4478 46.5331 17.491 46.1521 17.491C45.6848 17.491 45.2535 17.4406 44.8581 17.3328C44.4627 17.225 44.1176 17.0668 43.83 16.8583C43.5425 16.6427 43.3124 16.3767 43.1471 16.0603C42.9817 15.744 42.8955 15.363 42.8811 14.9245H44.5202V14.9101ZM49.8832 9.89931H51.1126V7.68507H52.7373V9.89931H54.2039V11.1143H52.7373V15.0539C52.7373 15.2264 52.7445 15.3702 52.7589 15.4996C52.7733 15.6218 52.8092 15.7296 52.8595 15.8159C52.9098 15.9022 52.9889 15.9669 53.0968 16.01C53.2046 16.0532 53.3412 16.0747 53.5281 16.0747C53.6431 16.0747 53.7582 16.0747 53.8732 16.0675C53.9882 16.0603 54.1032 16.046 54.2183 16.0172V17.2753C54.0385 17.2969 53.8588 17.3112 53.6935 17.3328C53.5209 17.3544 53.3484 17.3616 53.1687 17.3616C52.7373 17.3616 52.3922 17.3184 52.1334 17.2394C51.8746 17.1603 51.6661 17.0381 51.5224 16.8799C51.3714 16.7217 51.2779 16.5276 51.2204 16.2904C51.1701 16.0532 51.1341 15.78 51.127 15.478V11.1286H49.8976V9.89931H49.8832ZM55.3541 9.89931H56.8926V10.8986H56.9214C57.1514 10.4672 57.4677 10.1653 57.8775 9.97839C58.2873 9.79147 58.7258 9.69801 59.2075 9.69801C59.7898 9.69801 60.293 9.79866 60.7244 10.0071C61.1557 10.2084 61.5152 10.4888 61.8027 10.8483C62.0903 11.2077 62.2988 11.6247 62.4426 12.0992C62.5863 12.5736 62.6582 13.0841 62.6582 13.6232C62.6582 14.1193 62.5935 14.601 62.4641 15.0611C62.3347 15.5284 62.1406 15.9381 61.8818 16.2976C61.623 16.657 61.2923 16.9374 60.8897 17.1531C60.4871 17.3688 60.0198 17.4766 59.4735 17.4766C59.2362 17.4766 58.999 17.455 58.7618 17.4119C58.5245 17.3688 58.2945 17.2969 58.0788 17.2034C57.8631 17.1099 57.6546 16.9877 57.4749 16.8368C57.288 16.6858 57.137 16.5133 57.0076 16.3191H56.9789V20H55.3541V9.89931ZM61.0335 13.5945C61.0335 13.2638 60.9904 12.9403 60.9041 12.624C60.8178 12.3076 60.6884 12.0345 60.5159 11.79C60.3434 11.5456 60.1277 11.3515 59.8761 11.2077C59.6173 11.0639 59.3225 10.9849 58.9918 10.9849C58.3088 10.9849 57.7912 11.2221 57.4462 11.6966C57.1011 12.1711 56.9285 12.8037 56.9285 13.5945C56.9285 13.9683 56.9717 14.3134 57.0651 14.6297C57.1586 14.946 57.288 15.2192 57.4749 15.4493C57.6546 15.6793 57.8703 15.859 58.1219 15.9885C58.3735 16.125 58.6683 16.1897 58.999 16.1897C59.3728 16.1897 59.682 16.1107 59.9408 15.9597C60.1996 15.8087 60.4081 15.6074 60.5734 15.3702C60.7388 15.1258 60.861 14.8526 60.9329 14.5434C60.9976 14.2343 61.0335 13.918 61.0335 13.5945ZM63.9019 7.08838H65.5267V8.62684H63.9019V7.08838ZM63.9019 9.89931H65.5267V17.2753H63.9019V9.89931ZM66.9789 7.08838H68.6036V17.2753H66.9789V7.08838ZM73.5856 17.4766C72.9961 17.4766 72.4713 17.3759 72.0112 17.1818C71.5511 16.9877 71.1629 16.7145 70.8394 16.3767C70.5231 16.0316 70.2787 15.6218 70.1133 15.1473C69.948 14.6729 69.8617 14.148 69.8617 13.5801C69.8617 13.0194 69.948 12.5018 70.1133 12.0273C70.2787 11.5528 70.5231 11.143 70.8394 10.7979C71.1557 10.4529 71.5511 10.1869 72.0112 9.99276C72.4713 9.79866 72.9961 9.69801 73.5856 9.69801C74.1751 9.69801 74.6999 9.79866 75.16 9.99276C75.6201 10.1869 76.0084 10.4601 76.3319 10.7979C76.6482 11.143 76.8926 11.5528 77.058 12.0273C77.2233 12.5018 77.3096 13.0194 77.3096 13.5801C77.3096 14.148 77.2233 14.6729 77.058 15.1473C76.8926 15.6218 76.6482 16.0316 76.3319 16.3767C76.0155 16.7217 75.6201 16.9877 75.16 17.1818C74.6999 17.3759 74.1751 17.4766 73.5856 17.4766ZM73.5856 16.1897C73.9451 16.1897 74.2614 16.1107 74.5274 15.9597C74.7934 15.8087 75.0091 15.6074 75.1816 15.363C75.3541 15.1186 75.4764 14.8382 75.5626 14.5291C75.6417 14.2199 75.6848 13.9036 75.6848 13.5801C75.6848 13.2638 75.6417 12.9547 75.5626 12.6383C75.4836 12.322 75.3541 12.0488 75.1816 11.8044C75.0091 11.56 74.7934 11.3659 74.5274 11.2149C74.2614 11.0639 73.9451 10.9849 73.5856 10.9849C73.2262 10.9849 72.9099 11.0639 72.6439 11.2149C72.3779 11.3659 72.1622 11.5672 71.9897 11.8044C71.8171 12.0488 71.6949 12.322 71.6086 12.6383C71.5296 12.9547 71.4864 13.2638 71.4864 13.5801C71.4864 13.9036 71.5296 14.2199 71.6086 14.5291C71.6877 14.8382 71.8171 15.1186 71.9897 15.363C72.1622 15.6074 72.3779 15.8087 72.6439 15.9597C72.9099 16.1179 73.2262 16.1897 73.5856 16.1897ZM77.7841 9.89931H79.0134V7.68507H80.6381V9.89931H82.1047V11.1143H80.6381V15.0539C80.6381 15.2264 80.6453 15.3702 80.6597 15.4996C80.6741 15.6218 80.71 15.7296 80.7603 15.8159C80.8107 15.9022 80.8897 15.9669 80.9976 16.01C81.1054 16.0532 81.242 16.0747 81.4289 16.0747C81.5439 16.0747 81.659 16.0747 81.774 16.0675C81.889 16.0603 82.004 16.046 82.1191 16.0172V17.2753C81.9393 17.2969 81.7596 17.3112 81.5943 17.3328C81.4217 17.3544 81.2492 17.3616 81.0695 17.3616C80.6381 17.3616 80.293 17.3184 80.0342 17.2394C79.7754 17.1603 79.5669 17.0381 79.4232 16.8799C79.2722 16.7217 79.1787 16.5276 79.1212 16.2904C79.0709 16.0532 79.035 15.78 79.0278 15.478V11.1286H77.7984V9.89931H77.7841Z" fill="white"/>
<path d="M20.171 7.08842H12.7231L10.4226 0L8.11488 7.08842L0.666992 7.08124L6.69863 11.4666L4.39093 18.5478L10.4226 14.1697L16.447 18.5478L14.1465 11.4666L20.171 7.08842Z" fill="#00B67A"/>
<path d="M14.6644 13.07L14.1468 11.4668L10.4229 14.1699L14.6644 13.07Z" fill="#005128"/>
</g>
<defs>
<clipPath id="clip0_15816_19364">
<rect width="81.4379" height="20" fill="white" transform="translate(0.666992)"/>
</clipPath>
</defs>
</svg>
