<svg width="28" height="24" viewBox="0 0 28 24" fill="none" xmlns="http://www.w3.org/2000/svg">
<path d="M14 17.25C14 13.5469 17 10.5 20.75 10.5C24.4531 10.5 27.5 13.5469 27.5 17.25C27.5 21 24.4531 24 20.75 24C17 24 14 21 14 17.25ZM20.75 22.5C22.1562 22.5 23.4219 21.9844 24.3594 21.0469C24.0781 20.1562 23.2344 19.5 22.25 19.5H19.2031C18.2188 19.5 17.375 20.1562 17.0938 21.0469C18.0312 21.9844 19.2969 22.5 20.75 22.5ZM20.75 18C21.9688 18 23 17.0156 23 15.75C23 14.5312 21.9688 13.5 20.75 13.5C19.4844 13.5 18.5 14.5312 18.5 15.75C18.5 17.0156 19.4844 18 20.75 18Z" fill="white"/>
<path opacity="0.4" d="M5 1.5C5 0.703125 5.65625 0 6.5 0C7.29688 0 8 0.703125 8 1.5V3H14V1.5C14 0.703125 14.6562 0 15.5 0C16.2969 0 17 0.703125 17 1.5V3H19.25C20.4688 3 21.5 4.03125 21.5 5.25V7.5H0.5V5.25C0.5 4.03125 1.48438 3 2.75 3H5V1.5ZM20 9.04688C15.7812 9.42188 12.5 12.9844 12.5 17.25C12.5 20.0625 13.8594 22.5469 15.9688 24H2.75C1.48438 24 0.5 23.0156 0.5 21.75V9H20V9.04688Z" fill="white"/>
</svg>
