<svg width="40" height="40" viewBox="0 0 40 40" fill="none" xmlns="http://www.w3.org/2000/svg">
<rect width="40" height="40" rx="20" fill="#CBE3EF"/>
<path d="M15.2734 14.6094L14.2578 17.5H25.7031L24.6875 14.6094C24.5312 14.1016 24.0625 13.75 23.5156 13.75H16.4453C15.8984 13.75 15.4297 14.1016 15.2734 14.6094ZM11.5234 17.6953L12.8906 13.7891C13.4375 12.2656 14.8438 11.25 16.4453 11.25H23.5156C25.1172 11.25 26.5234 12.2656 27.0703 13.7891L28.4375 17.6953C29.3359 18.0859 30 18.9844 30 20V25.625H10V20C10 18.9844 10.625 18.0859 11.5234 17.6953ZM15 21.25C15 20.5859 14.4141 20 13.75 20C13.0469 20 12.5 20.5859 12.5 21.25C12.5 21.9531 13.0469 22.5 13.75 22.5C14.4141 22.5 15 21.9531 15 21.25ZM26.25 22.5C26.9141 22.5 27.5 21.9531 27.5 21.25C27.5 20.5859 26.9141 20 26.25 20C25.5469 20 25 20.5859 25 21.25C25 21.9531 25.5469 22.5 26.25 22.5Z" fill="#04567D"/>
<path opacity="0.4" d="M16.4453 13.75H23.5156C24.0625 13.75 24.5312 14.1016 24.6875 14.6094L25.7031 17.5H14.2578L15.2734 14.6094C15.4297 14.1016 15.8984 13.75 16.4453 13.75ZM10 25.625H13.75V27.5C13.75 28.2031 13.1641 28.75 12.5 28.75H11.25C10.5469 28.75 10 28.2031 10 27.5V25.625ZM30 25.625V27.5C30 28.2031 29.4141 28.75 28.75 28.75H27.5C26.7969 28.75 26.25 28.2031 26.25 27.5V25.625H30Z" fill="#04567D"/>
</svg>
