<svg width="21" height="18" viewBox="0 0 21 18" fill="none" xmlns="http://www.w3.org/2000/svg">
<path d="M21.0001 8.375C21.0001 12.8672 16.5079 16.5 11.0001 16.5C9.51569 16.5 8.1485 16.2656 6.8985 15.8359C6.46881 16.1484 5.68756 16.6172 4.78912 17.0078C3.85162 17.4375 2.71881 17.75 1.62506 17.75C1.35162 17.75 1.11725 17.6328 1.03912 17.3984C0.921936 17.1641 1.00006 16.8906 1.15631 16.6953C1.19537 16.6953 1.19537 16.6562 1.23444 16.6172C1.2735 16.5781 1.35162 16.5 1.42975 16.4219C1.586 16.2266 1.78131 15.9141 2.01569 15.5625C2.40631 14.9375 2.75787 14.0781 2.836 13.1016C1.66412 11.7734 1.00006 10.1719 1.00006 8.375C1.00006 3.92188 5.45319 0.25 11.0001 0.25C16.5079 0.25 21.0001 3.92188 21.0001 8.375Z" fill="#04567D"/>
</svg>
