<svg width="21" height="18" viewBox="0 0 21 18" fill="none" xmlns="http://www.w3.org/2000/svg">
<path d="M21.0001 8.375C21.0001 12.8672 16.5079 16.5 11.0001 16.5C9.51575 16.5 8.14856 16.2656 6.89856 15.8359C6.46887 16.1484 5.68762 16.6172 4.78918 17.0078C3.85168 17.4375 2.71887 17.75 1.62512 17.75C1.35168 17.75 1.11731 17.6328 1.03918 17.3984C0.921997 17.1641 1.00012 16.8906 1.15637 16.6953C1.19543 16.6953 1.19543 16.6562 1.2345 16.6172C1.27356 16.5781 1.35168 16.5 1.42981 16.4219C1.58606 16.2266 1.78137 15.9141 2.01575 15.5625C2.40637 14.9375 2.75793 14.0781 2.83606 13.1016C1.66418 11.7734 1.00012 10.1719 1.00012 8.375C1.00012 3.92188 5.45325 0.25 11.0001 0.25C16.5079 0.25 21.0001 3.92188 21.0001 8.375Z" fill="white"/>
</svg>
