<svg width="57" height="56" viewBox="0 0 57 56" fill="none" xmlns="http://www.w3.org/2000/svg">
<rect x="0.5" width="56" height="56" rx="28" fill="#121212" fill-opacity="0.8"/>
<path d="M35.7656 35.3125C35.4844 35.5938 34.9688 35.5938 34.6875 35.3125L28.5 29.0781L22.2656 35.3125C21.9844 35.5938 21.4688 35.5938 21.1875 35.3125C20.9062 35.0312 20.9062 34.5156 21.1875 34.2344L27.4219 28L21.1875 21.8125C20.9062 21.5312 20.9062 21.0156 21.1875 20.7344C21.4688 20.4531 21.9844 20.4531 22.2656 20.7344L28.5 26.9688L34.6875 20.7344C34.9688 20.4531 35.4844 20.4531 35.7656 20.7344C36.0469 21.0156 36.0469 21.5312 35.7656 21.8125L29.5312 28L35.7656 34.2344C36.0469 34.5156 36.0469 35.0312 35.7656 35.3125Z" fill="white"/>
</svg>
