<svg width="40" height="40" viewBox="0 0 40 40" fill="none" xmlns="http://www.w3.org/2000/svg">
<path d="M18.5938 27.1094C18.125 27.9688 16.9531 28.3594 16.0156 27.8906C13.2031 26.4844 11.25 23.5156 11.25 20.0781C11.25 17.8125 12.1094 15.7812 13.5156 14.2188L12.6562 13.3594C12.1094 12.8125 12.5 11.9531 13.2031 11.9531H17.9688C18.4375 11.9531 18.75 12.3438 18.75 12.8125V17.5C18.75 18.2031 17.8906 18.5938 17.4219 18.0469L16.1719 16.875C15.4688 17.7344 15 18.9062 15 20.0781C15 22.0312 16.0938 23.75 17.7344 24.5312C18.6719 25 19.0625 26.1719 18.5938 27.1094ZM25 20C25 18.0469 23.9062 16.3281 22.2656 15.5469C21.4062 15.0781 21.0156 13.9062 21.4844 12.9688C21.9531 12.1094 23.0469 11.7188 23.9844 12.1875C26.7969 13.5938 28.75 16.5625 28.75 20C28.75 22.2656 27.8906 24.2969 26.4844 25.8594L27.4219 26.7188C27.8906 27.1875 27.5 28.125 26.7969 28.125H22.1094C21.6406 28.125 21.25 27.7344 21.25 27.2656V22.5781C21.25 21.7969 22.1875 21.4844 22.6562 21.9531L23.8281 23.2031C24.6094 22.3438 25 21.1719 25 20Z" fill="#04567D"/>
<path opacity="0.4" d="M17.3438 2.57812C17.7344 3.90625 17.0312 5.23438 15.7031 5.625C14.5312 6.01562 13.4375 6.48438 12.4219 7.03125C12.4219 7.1875 12.4219 7.34375 12.4219 7.5C12.4219 10.3125 10.2344 12.5 7.42188 12.5C7.26562 12.5 7.10938 12.5 6.95312 12.5C6.40625 13.5156 5.9375 14.6094 5.54688 15.7812C5.15625 17.1094 3.82812 17.8125 2.5 17.4219C1.17188 17.0312 0.390625 15.625 0.78125 14.2969C1.32812 12.6562 2.03125 11.0156 2.89062 9.60938C2.65625 8.98438 2.42188 8.28125 2.42188 7.5C2.42188 4.76562 4.6875 2.5 7.42188 2.5C8.20312 2.5 8.90625 2.73438 9.53125 2.96875C11.0156 2.10938 12.5781 1.40625 14.2188 0.859375C15.5469 0.46875 16.9531 1.25 17.3438 2.57812ZM22.5781 2.57812C22.9688 1.25 24.375 0.46875 25.7031 0.859375C27.3438 1.40625 28.9062 2.10938 30.3906 2.96875C31.0156 2.73438 31.7188 2.5 32.5 2.5C35.2344 2.5 37.5 4.76562 37.5 7.5C37.5 8.28125 37.2656 8.98438 37.0312 9.60938C37.8906 11.0156 38.5938 12.6562 39.1406 14.2969C39.5312 15.625 38.75 17.0312 37.4219 17.4219C36.0938 17.8125 34.7656 17.1094 34.375 15.7812C33.9844 14.6094 33.5156 13.5156 32.9688 12.5C32.8125 12.5 32.6562 12.5 32.5 12.5C29.6875 12.5 27.5 10.3125 27.5 7.5C27.5 7.34375 27.5 7.1875 27.5 7.03125C26.4844 6.48438 25.3906 6.01562 24.2188 5.625C22.8906 5.23438 22.1875 3.90625 22.5781 2.57812ZM2.5 22.6562C3.82812 22.2656 5.15625 22.9688 5.54688 24.2969C5.9375 25.4688 6.40625 26.5625 6.95312 27.5781C7.10938 27.5781 7.26562 27.5 7.42188 27.5C10.2344 27.5 12.4219 29.7656 12.4219 32.5C12.4219 32.7344 12.4219 32.8906 12.4219 33.0469C13.4375 33.5938 14.5312 34.0625 15.7031 34.4531C17.0312 34.8438 17.7344 36.1719 17.3438 37.5C16.9531 38.8281 15.5469 39.6094 14.2188 39.2188C12.5781 38.6719 11.0156 37.9688 9.53125 37.1094C8.90625 37.3438 8.20312 37.5 7.42188 37.5C4.6875 37.5 2.42188 35.3125 2.42188 32.5C2.42188 31.7969 2.65625 31.0938 2.89062 30.4688C2.03125 28.9844 1.32812 27.4219 0.78125 25.7812C0.390625 24.4531 1.17188 23.0469 2.5 22.6562ZM37.4219 22.6562C38.75 23.0469 39.5312 24.4531 39.1406 25.7812C38.5938 27.4219 37.8906 28.9844 37.0312 30.4688C37.2656 31.0938 37.5 31.7969 37.5 32.5C37.5 35.3125 35.2344 37.5 32.5 37.5C31.7188 37.5 31.0156 37.3438 30.3906 37.1094C28.9062 37.9688 27.3438 38.6719 25.7031 39.2188C24.375 39.6094 22.9688 38.8281 22.5781 37.5C22.1875 36.1719 22.8906 34.8438 24.2188 34.4531C25.3906 34.0625 26.4844 33.5938 27.5 33.0469C27.5 32.8906 27.5 32.7344 27.5 32.5C27.5 29.7656 29.6875 27.5 32.5 27.5C32.6562 27.5 32.8125 27.5781 32.9688 27.5781C33.5156 26.5625 33.9844 25.4688 34.375 24.2969C34.7656 22.9688 36.0938 22.2656 37.4219 22.6562Z" fill="#04567D"/>
</svg>
