<svg width="40" height="40" viewBox="0 0 40 40" fill="none" xmlns="http://www.w3.org/2000/svg">
<path d="M17.5 15C17.5 16.4062 16.3281 17.5 15 17.5C13.5938 17.5 12.5 16.4062 12.5 15C12.5 13.6719 13.5938 12.5 15 12.5C16.3281 12.5 17.5 13.6719 17.5 15ZM27.5 25C27.5 26.4062 26.3281 27.5 25 27.5C23.5938 27.5 22.5 26.4062 22.5 25C22.5 23.6719 23.5938 22.5 25 22.5C26.3281 22.5 27.5 23.6719 27.5 25ZM16.25 26.3281C15.5469 27.1094 14.375 27.1094 13.6719 26.3281C12.8906 25.625 12.8906 24.4531 13.6719 23.6719L23.6719 13.6719C24.375 12.9688 25.5469 12.9688 26.25 13.6719C27.0312 14.4531 27.0312 15.625 26.25 16.3281L16.25 26.3281Z" fill="#04567D"/>
<path opacity="0.4" d="M20 0C22.8125 0 25.3125 1.64062 26.5625 4.0625C29.1406 3.20312 32.0312 3.82812 34.1406 5.85938C36.1719 7.89062 36.7188 10.8594 35.9375 13.4375C38.3594 14.6875 40 17.1875 40 20C40 22.8906 38.3594 25.3906 35.9375 26.6406C36.7969 29.2188 36.1719 32.1094 34.1406 34.1406C32.0312 36.1719 29.1406 36.7969 26.5625 36.0156C25.3125 38.4375 22.8125 40 20 40C17.1094 40 14.6094 38.4375 13.3594 36.0156C10.7812 36.7969 7.89062 36.1719 5.78125 34.1406C3.75 32.1094 3.20312 29.2188 3.98438 26.6406C1.5625 25.3906 0 22.8906 0 20C0 17.1875 1.5625 14.6875 3.98438 13.4375C3.125 10.8594 3.75 7.89062 5.78125 5.85938C7.89062 3.82812 10.7812 3.20312 13.3594 4.0625C14.6094 1.64062 17.1094 0 20 0ZM15 17.5C16.3281 17.5 17.5 16.4062 17.5 15C17.5 13.6719 16.3281 12.5 15 12.5C13.5938 12.5 12.5 13.6719 12.5 15C12.5 16.4062 13.5938 17.5 15 17.5ZM25 22.5C23.5938 22.5 22.5 23.6719 22.5 25C22.5 26.4062 23.5938 27.5 25 27.5C26.3281 27.5 27.5 26.4062 27.5 25C27.5 23.6719 26.3281 22.5 25 22.5ZM26.25 16.3281C27.0312 15.625 27.0312 14.4531 26.25 13.6719C25.5469 12.9688 24.375 12.9688 23.6719 13.6719L13.6719 23.6719C12.8906 24.4531 12.8906 25.625 13.6719 26.3281C14.375 27.1094 15.5469 27.1094 16.25 26.3281L26.25 16.3281Z" fill="#04567D"/>
</svg>
