<svg width="24" height="24" viewBox="0 0 24 24" fill="none" xmlns="http://www.w3.org/2000/svg">
<path d="M2.25 3H21.75C22.9688 3 24 4.03125 24 5.25C24 6 23.625 6.65625 23.0625 7.07812L12.8906 14.7188C12.3281 15.1406 11.625 15.1406 11.0625 14.7188L0.890625 7.07812C0.328125 6.65625 0 6 0 5.25C0 4.03125 0.984375 3 2.25 3Z" fill="white"/>
<path opacity="0.4" d="M0 5.25C0 6 0.328125 6.65625 0.890625 7.07812L11.0625 14.7188C11.625 15.1406 12.3281 15.1406 12.8906 14.7188L23.0625 7.07812C23.625 6.65625 24 6 24 5.25V18C24 19.6875 22.6406 21 21 21H3C1.3125 21 0 19.6875 0 18V5.25Z" fill="white"/>
</svg>
