<svg width="20" height="17" viewBox="0 0 20 17" fill="none" xmlns="http://www.w3.org/2000/svg">
<path opacity="0.4" d="M10 3.34375L17 9.46875V15.75C17 16.4375 16.4375 17 15.75 17H13.25C12.5312 17 12 16.4688 12 15.75V13C12 12.4375 11.5312 12 11 12H9C8.4375 12 8 12.4375 8 13V15.75C8 16.4688 7.4375 17 6.75 17H4.25C3.53125 17 3 16.4688 3 15.75V9.46875L10 3.34375Z" fill="#04567D"/>
<path d="M9.3125 1.25C9.6875 0.9375 10.2812 0.9375 10.6562 1.25L18.6562 8.25C19.0625 8.625 19.0938 9.25 18.75 9.6875C18.375 10.0938 17.75 10.125 17.3125 9.78125L10 3.34375L2.65625 9.78125C2.21875 10.125 1.59375 10.0938 1.21875 9.6875C0.875 9.25 0.90625 8.625 1.3125 8.25L9.3125 1.25Z" fill="#04567D"/>
</svg>
