<svg width="20" height="20" viewBox="0 0 20 20" fill="none" xmlns="http://www.w3.org/2000/svg">
<path d="M10 20C4.45312 20 0 15.5469 0 10C0 4.49219 4.45312 0 10 0C15.5078 0 20 4.49219 20 10C20 15.5469 15.5078 20 10 20ZM8.4375 13.125C7.89062 13.125 7.5 13.5547 7.5 14.0625C7.5 14.6094 7.89062 15 8.4375 15H11.5625C12.0703 15 12.5 14.6094 12.5 14.0625C12.5 13.5547 12.0703 13.125 11.5625 13.125H11.25V9.6875C11.25 9.17969 10.8203 8.75 10.3125 8.75H8.4375C7.89062 8.75 7.5 9.17969 7.5 9.6875C7.5 10.2344 7.89062 10.625 8.4375 10.625H9.375V13.125H8.4375ZM10 7.5C10.6641 7.5 11.25 6.95312 11.25 6.25C11.25 5.58594 10.6641 5 10 5C9.29688 5 8.75 5.58594 8.75 6.25C8.75 6.95312 9.29688 7.5 10 7.5Z" fill="#04567D"/>
</svg>
