<svg width="20" height="18" viewBox="0 0 20 18" fill="none" xmlns="http://www.w3.org/2000/svg">
<path d="M6.25006 2.75H3.75006C3.04694 2.75 2.50006 3.33594 2.50006 4V14C2.50006 14.7031 3.04694 15.25 3.75006 15.25H6.25006C6.91412 15.25 7.50006 15.8359 7.50006 16.5C7.50006 17.2031 6.91412 17.75 6.25006 17.75H3.75006C1.67975 17.75 6.10352e-05 16.0703 6.10352e-05 14V4C6.10352e-05 1.92969 1.67975 0.25 3.75006 0.25H6.25006C6.91412 0.25 7.50006 0.835938 7.50006 1.5C7.50006 2.20312 6.91412 2.75 6.25006 2.75ZM19.6876 9.70312L14.0626 15.0156C13.7891 15.25 13.3985 15.3281 13.0469 15.1719C12.6954 15.0547 12.5001 14.7031 12.5001 14.3125V11.5H7.50006C6.79694 11.5 6.25006 10.9531 6.25006 10.25V7.75C6.25006 7.08594 6.79694 6.5 7.50006 6.5H12.5001V3.6875C12.5001 3.33594 12.6954 2.98438 13.0469 2.82812C13.3985 2.71094 13.7891 2.75 14.0626 3.02344L19.6876 8.33594C19.8829 8.53125 20.0001 8.76562 20.0001 9C20.0001 9.27344 19.8829 9.50781 19.6876 9.70312Z" fill="white"/>
</svg>
