<svg width="16" height="16" viewBox="0 0 16 16" fill="none" xmlns="http://www.w3.org/2000/svg">
<path opacity="0.4" d="M0 3.5C0 2.125 1.09375 1 2.5 1H6C6.53125 1 7 1.46875 7 2C7 2.5625 6.53125 3 6 3H2.5C2.21875 3 2 3.25 2 3.5V13.5C2 13.7812 2.21875 14 2.5 14H12.5C12.75 14 13 13.7812 13 13.5V10C13 9.46875 13.4375 9 14 9C14.5312 9 15 9.46875 15 10V13.5C15 14.9062 13.875 16 12.5 16H2.5C1.09375 16 0 14.9062 0 13.5V3.5Z" fill="#DB1212"/>
<path d="M9 1C9 0.46875 9.4375 0 10 0H15C15.5312 0 16 0.46875 16 1V6C16 6.5625 15.5312 7 15 7C14.4375 7 14 6.5625 14 6V3.4375L7.6875 9.71875C7.3125 10.125 6.65625 10.125 6.28125 9.71875C5.875 9.34375 5.875 8.6875 6.28125 8.3125L12.5625 2H10C9.4375 2 9 1.5625 9 1Z" fill="#DB1212"/>
</svg>
