<svg width="50" height="42" viewBox="0 0 50 42" fill="none" xmlns="http://www.w3.org/2000/svg">
<path d="M43.5938 6L41.7969 4.20312C41.0156 3.5 41.0156 2.32812 41.7969 1.625C42.5 0.84375 43.6719 0.84375 44.375 1.625L49.375 6.625C49.7656 6.9375 50 7.40625 50 7.875C50 8.42188 49.7656 8.89062 49.375 9.20312L44.375 14.2031C43.6719 14.9844 42.5 14.9844 41.7969 14.2031C41.0156 13.5 41.0156 12.3281 41.7969 11.5469L43.5938 9.75H30C28.9062 9.75 28.125 8.96875 28.125 7.875C28.125 6.85938 28.9062 6 30 6H43.5938ZM19.9219 32.25C21.0156 32.25 21.7969 33.1094 21.7969 34.125C21.7969 35.2188 21.0156 36 19.9219 36H6.32812L8.125 37.7969C8.90625 38.5781 8.90625 39.75 8.125 40.4531C7.42188 41.2344 6.25 41.2344 5.54688 40.4531L0.546875 35.4531C0.15625 35.1406 0 34.6719 0 34.125C0 33.6562 0.15625 33.1875 0.546875 32.7969L5.54688 27.7969C6.25 27.0938 7.42188 27.0938 8.125 27.7969C8.90625 28.5781 8.90625 29.75 8.125 30.4531L6.32812 32.25H19.9219Z" fill="#04567D"/>
<path opacity="0.4" d="M25.9375 7.875C25.9375 10.1406 27.7344 11.9375 30 11.9375H37.5781C37.8125 13.3438 38.5938 14.5156 39.7656 15.2188C39.9219 15.4531 40.0781 15.6094 40.2344 15.7656C41.7969 17.4062 44.375 17.4062 45.9375 15.7656L47.5 14.2812V31C47.5 33.8125 45.2344 36 42.5 36H23.5938C23.8281 35.4531 23.9844 34.8281 23.9844 34.125C23.9844 31.9375 22.1875 30.0625 19.9219 30.0625H12.3438C12.1094 28.7344 11.3281 27.5625 10.1562 26.8594C10 26.625 9.84375 26.4688 9.6875 26.3125C8.125 24.6719 5.54688 24.6719 3.98438 26.3125L2.5 27.7969V11C2.5 8.26562 4.6875 6 7.5 6H26.3281C26.0938 6.625 25.9375 7.25 25.9375 7.875ZM7.5 11V16C10.2344 16 12.5 13.8125 12.5 11H7.5ZM42.5 26C39.6875 26 37.5 28.2656 37.5 31H42.5V26ZM25 13.5C20.7812 13.5 17.5 16.8594 17.5 21C17.5 25.1406 20.7812 28.5 25 28.5C29.1406 28.5 32.5 25.1406 32.5 21C32.5 16.8594 29.1406 13.5 25 13.5Z" fill="#04567D"/>
</svg>
