<svg width="26" height="25" viewBox="0 0 26 25" fill="none" xmlns="http://www.w3.org/2000/svg">
<path d="M24.7656 19.9844L16.5156 16.7031L17.3125 15.7188C17.6875 15.2031 18.3906 15.0625 19 15.2969L24.1094 17.5C24.7188 17.7812 25.0938 18.4844 24.9531 19.1406L24.7656 19.9844ZM1 3.57812C0.953125 2.875 1.42188 2.3125 2.125 2.17188L4 1.70312L7.75 10.75C9.34375 14.0312 11.9688 16.6562 15.25 18.25L24.2969 22L23.8281 23.875C23.6875 24.5781 23.125 25 22.4219 25C10.6094 25 0.953125 15.3906 1 3.57812ZM10.2812 8.6875L9.29688 9.48438L6.01562 1.23438L6.8125 1.04688C7.51562 0.90625 8.21875 1.28125 8.5 1.89062L10.7031 7C10.9375 7.60938 10.7969 8.3125 10.2812 8.6875Z" fill="white"/>
<path opacity="0.4" d="M24.2969 22L15.25 18.25L16.5156 16.7031L24.7656 19.9844L24.2969 22ZM7.75 10.75L4 1.70312L6.01562 1.23438L9.29688 9.48438L7.75 10.75Z" fill="white"/>
</svg>
