<svg width="25" height="25" viewBox="0 0 25 25" fill="none" xmlns="http://www.w3.org/2000/svg">
<path d="M7.6875 2.17188L9.5625 6.67188C9.89062 7.42188 9.70312 8.3125 9.04688 8.82812L6.75 10.75C8.29688 14.0312 10.9688 16.7031 14.25 18.25L16.1719 15.9531C16.6875 15.2969 17.5781 15.1094 18.3281 15.4375L22.8281 17.3125C23.7188 17.6406 24.1406 18.625 23.9062 19.5156L22.7812 23.6406C22.5469 24.4375 21.8438 25 21 25C9.375 25 0 15.625 0 4C0 3.15625 0.5625 2.45312 1.35938 2.21875L5.48438 1.09375C6.375 0.859375 7.35938 1.28125 7.6875 2.17188ZM12 2.125C12 2.78125 12.4688 3.25 13.125 3.25C17.8594 3.25 21.75 7.14062 21.75 11.875C21.75 12.5312 22.2188 13 22.875 13C23.4844 13 24 12.5312 24 11.875C24 5.875 19.125 1 13.125 1C12.4688 1 12 1.51562 12 2.125ZM12 11.5C12 12.0625 12.2812 12.5312 12.75 12.8125C13.7344 13.4219 15 12.6719 15 11.5C15 10.9844 14.6719 10.5156 14.25 10.2344C13.2188 9.625 12 10.375 12 11.5ZM13.125 5.5C12.4688 5.5 12 6.01562 12 6.625C12 7.28125 12.4688 7.75 13.125 7.75C15.375 7.75 17.25 9.625 17.25 11.875C17.25 12.5312 17.7188 13 18.375 13C18.9844 13 19.5 12.5312 19.5 11.875C19.5 8.35938 16.6406 5.5 13.125 5.5Z" fill="white"/>
</svg>
