<svg width="46" height="41" viewBox="0 0 46 41" fill="none" xmlns="http://www.w3.org/2000/svg">
<path d="M44.25 21.4062C45.0312 21.7188 45.5 22.4219 45.5 23.125C45.5 28.125 43.4688 36.3281 34.9531 39.9219C34.4844 40.0781 33.9375 40.0781 33.4688 39.9219C24.9531 36.3281 23 28.125 23 23.125C23 22.4219 23.3906 21.7188 24.1719 21.4062L33.5469 17.6562C33.9375 17.5 34.4844 17.5 34.875 17.6562L44.25 21.4062ZM34.25 36.0938C39.5625 33.5156 41.3594 28.3594 41.6719 24.375L34.25 21.4062V36.0938Z" fill="#04567D"/>
<path opacity="0.4" d="M26.75 0C28.7812 0 30.5 1.71875 30.5 3.75V16.1719L27.1406 17.5H21.75C21.0469 17.5 20.5 18.125 20.5 18.75V23.75C20.5 23.8281 20.5 23.9062 20.5 23.9844C20.6562 28.5156 22.375 35.3125 28.1562 39.7656C27.7656 39.9219 27.2188 40 26.75 40H19.25V33.75C19.25 31.7188 17.5312 30 15.5 30C13.3906 30 11.75 31.7188 11.75 33.75V40H4.25C2.14062 40 0.5 38.3594 0.5 36.25V3.75C0.5 1.71875 2.14062 0 4.25 0H26.75ZM5.5 21.25C5.5 21.9531 6.04688 22.5 6.75 22.5H9.25C9.875 22.5 10.5 21.9531 10.5 21.25V18.75C10.5 18.125 9.875 17.5 9.25 17.5H6.75C6.04688 17.5 5.5 18.125 5.5 18.75V21.25ZM14.25 17.5C13.5469 17.5 13 18.125 13 18.75V21.25C13 21.9531 13.5469 22.5 14.25 22.5H16.75C17.375 22.5 18 21.9531 18 21.25V18.75C18 18.125 17.375 17.5 16.75 17.5H14.25ZM6.75 7.5C6.04688 7.5 5.5 8.125 5.5 8.75V11.25C5.5 11.9531 6.04688 12.5 6.75 12.5H9.25C9.875 12.5 10.5 11.9531 10.5 11.25V8.75C10.5 8.125 9.875 7.5 9.25 7.5H6.75ZM13 11.25C13 11.9531 13.5469 12.5 14.25 12.5H16.75C17.375 12.5 18 11.9531 18 11.25V8.75C18 8.125 17.375 7.5 16.75 7.5H14.25C13.5469 7.5 13 8.125 13 8.75V11.25ZM21.75 7.5C21.0469 7.5 20.5 8.125 20.5 8.75V11.25C20.5 11.9531 21.0469 12.5 21.75 12.5H24.25C24.875 12.5 25.5 11.9531 25.5 11.25V8.75C25.5 8.125 24.875 7.5 24.25 7.5H21.75Z" fill="#04567D"/>
</svg>
