<svg width="25" height="24" viewBox="0 0 25 24" fill="none" xmlns="http://www.w3.org/2000/svg">
<path d="M4.41699 10.5C3.99512 10.5 3.66699 10.1719 3.66699 9.75V9C3.66699 4.07812 7.69824 0 12.667 0C17.5889 0 21.667 4.07812 21.667 9V9.75C21.6201 12.6562 19.2764 15 16.417 15H11.917C11.0732 15 10.417 14.3438 10.417 13.5C10.417 12.7031 11.0732 12 11.917 12H13.417C14.2139 12 14.917 12.7031 14.917 13.5H16.417C18.4795 13.5 20.167 11.8594 20.167 9.75V9C20.167 4.875 16.792 1.5 12.667 1.5C8.49512 1.5 5.16699 4.875 5.16699 9V9.75C5.16699 10.1719 4.79199 10.5 4.41699 10.5ZM16.8857 16.5C20.3545 16.5 23.167 19.3125 23.167 22.7812C23.167 23.4844 22.6045 24 21.9014 24H3.38574C2.68262 24 2.16699 23.4844 2.16699 22.7812C2.16699 19.3125 4.93262 16.5 8.40137 16.5H16.8857Z" fill="white"/>
<path opacity="0.4" d="M11.917 10.5C10.2295 10.5 8.91699 11.8594 8.91699 13.5C8.91699 13.5938 8.91699 13.6406 8.91699 13.6875C7.55762 12.5625 6.66699 10.9219 6.66699 9C6.66699 5.71875 9.33887 3 12.667 3C15.9482 3 18.667 5.71875 18.667 9V9.79688C18.667 11.0156 17.6357 12 16.417 12H15.9951C15.4326 11.1094 14.4482 10.5 13.417 10.5H11.917Z" fill="white"/>
</svg>
