<svg width="25" height="24" viewBox="0 0 25 24" fill="none" xmlns="http://www.w3.org/2000/svg">
<path d="M16.833 8.95312C17.3018 9.42188 17.3018 10.125 16.833 10.5469L11.583 15.7969C11.1611 16.2656 10.458 16.2656 10.0361 15.7969L7.41113 13.1719C6.94238 12.75 6.94238 12.0469 7.41113 11.5781C7.83301 11.1562 8.53613 11.1562 8.95801 11.5781L10.833 13.4531L15.2861 8.95312C15.708 8.53125 16.4111 8.53125 16.833 8.95312Z" fill="white"/>
<path opacity="0.4" d="M12.333 0C14.0205 0 15.5205 0.984375 16.2705 2.4375C17.8174 1.92188 19.5518 2.29688 20.8174 3.51562C22.0361 4.73438 22.3643 6.51562 21.8955 8.0625C23.3486 8.8125 24.333 10.3125 24.333 12C24.333 13.7344 23.3486 15.2344 21.8955 15.9844C22.4111 17.5312 22.0361 19.2656 20.8174 20.4844C19.5518 21.7031 17.8174 22.0781 16.2705 21.6094C15.5205 23.0625 14.0205 24 12.333 24C10.5986 24 9.09863 23.0625 8.34863 21.6094C6.80176 22.0781 5.06738 21.7031 3.80176 20.4844C2.58301 19.2656 2.25488 17.5312 2.72363 15.9844C1.27051 15.2344 0.333008 13.7344 0.333008 12C0.333008 10.3125 1.27051 8.8125 2.72363 8.0625C2.20801 6.51562 2.58301 4.73438 3.80176 3.51562C5.06738 2.29688 6.80176 1.92188 8.34863 2.4375C9.09863 0.984375 10.5986 0 12.333 0ZM16.833 10.5469C17.3018 10.125 17.3018 9.42188 16.833 8.95312C16.4111 8.53125 15.708 8.53125 15.2861 8.95312L10.833 13.4531L8.95801 11.5781C8.53613 11.1562 7.83301 11.1562 7.41113 11.5781C6.94238 12.0469 6.94238 12.75 7.41113 13.1719L10.0361 15.7969C10.458 16.2656 11.1611 16.2656 11.583 15.7969L16.833 10.5469Z" fill="white"/>
</svg>
