<svg width="24" height="24" viewBox="0 0 24 24" fill="none" xmlns="http://www.w3.org/2000/svg">
<path d="M2.25 6H21C21 6 21 6 21.0469 6C21.5625 6.04688 22.0312 6.1875 22.5 6.42188C23.3906 6.9375 24 7.92188 24 9V19.5C24 21.1875 22.6406 22.5 21 22.5H3C1.3125 22.5 0 21.1875 0 19.5V3.75C0 5.01562 0.984375 6 2.25 6ZM19.5 15.75C20.2969 15.75 21 15.0938 21 14.25C21 13.4531 20.2969 12.75 19.5 12.75C18.6562 12.75 18 13.4531 18 14.25C18 15.0938 18.6562 15.75 19.5 15.75Z" fill="white"/>
<path opacity="0.4" d="M0 3.75C0 2.53125 0.984375 1.5 2.25 1.5H20.25C21.4688 1.5 22.5 2.53125 22.5 3.75V6.42188C22.0312 6.1875 21.5156 6 21 6H2.25C0.984375 6 0 5.01562 0 3.75Z" fill="white"/>
</svg>
