<svg width="40" height="40" viewBox="0 0 40 40" fill="none" xmlns="http://www.w3.org/2000/svg">
<rect width="40" height="40" rx="20" fill="#CBE3EF"/>
<path d="M11.875 15H13.75H27.5C27.5 15 27.5 15 27.5391 15C27.9688 15.0391 28.3594 15.1562 28.75 15.3516C29.4922 15.7812 30 16.6016 30 17.5V26.25C30 27.6562 28.8672 28.75 27.5 28.75H12.5C11.0938 28.75 10 27.6562 10 26.25V19.375V17.5V13.125C10 14.1797 10.8203 15 11.875 15ZM26.25 23.125C26.9141 23.125 27.5 22.5781 27.5 21.875C27.5 21.2109 26.9141 20.625 26.25 20.625C25.5469 20.625 25 21.2109 25 21.875C25 22.5781 25.5469 23.125 26.25 23.125Z" fill="#04567D"/>
<path opacity="0.4" d="M10 13.125C10 12.1094 10.8203 11.25 11.875 11.25H26.875C27.8906 11.25 28.75 12.1094 28.75 13.125V13.75V15V15.3516C28.3594 15.1562 27.9297 15 27.5 15H25H11.875C10.8203 15 10 14.1797 10 13.125Z" fill="#04567D"/>
</svg>
