<svg width="24" height="21" viewBox="0 0 24 21" fill="none" xmlns="http://www.w3.org/2000/svg">
<path d="M15.75 6.25H10.75C10.0469 6.25 9.5 5.70312 9.5 5V0L15.75 6.25ZM22.1953 9.21875L22.7812 9.80469C23.3672 10.3906 23.3672 11.3672 22.7812 11.9922L21.6094 13.1641L18.8359 10.3906L20.0078 9.21875C20.5938 8.63281 21.6094 8.63281 22.1953 9.21875ZM12.8984 16.3281L17.9766 11.25L20.75 14.0234L15.6719 19.1016C15.5156 19.2578 15.3203 19.375 15.125 19.4141L12.7422 20C12.5469 20.0391 12.3125 20 12.1562 19.8438C12 19.6875 11.9609 19.4531 12 19.2578L12.5859 16.875C12.625 16.6797 12.7422 16.4844 12.8984 16.2891V16.3281Z" fill="white"/>
<path opacity="0.4" d="M0.75 2.5C0.75 1.13281 1.84375 0 3.25 0H9.5V5C9.5 5.70312 10.0469 6.25 10.75 6.25H15.75V11.7188L12.0391 15.4297C11.7266 15.7422 11.4922 16.1328 11.375 16.5625L10.7891 18.9062C10.7109 19.2969 10.7109 19.6875 10.8281 20H3.25C1.84375 20 0.75 18.9062 0.75 17.5V2.5Z" fill="white"/>
</svg>
