<svg width="25" height="24" viewBox="0 0 25 24" fill="none" xmlns="http://www.w3.org/2000/svg">
<path d="M8.17188 3.42188V3.375L4.79688 7.125C4.60938 7.35938 4.32812 7.5 4 7.5C3.71875 7.54688 3.39062 7.40625 3.20312 7.17188L1.32812 5.29688C0.859375 4.875 0.859375 4.17188 1.32812 3.70312C1.75 3.28125 2.45312 3.28125 2.92188 3.70312L3.95312 4.78125L6.53125 1.875C6.95312 1.45312 7.65625 1.40625 8.125 1.82812C8.54688 2.25 8.59375 2.95312 8.17188 3.42188ZM8.17188 10.9219V10.875L4.79688 14.625C4.60938 14.8594 4.32812 15 4 15C3.71875 15.0469 3.39062 14.9062 3.20312 14.6719L1.32812 12.7969C0.859375 12.375 0.859375 11.6719 1.32812 11.2031C1.75 10.7812 2.45312 10.7812 2.92188 11.2031L3.95312 12.2812L6.53125 9.375C6.95312 8.95312 7.65625 8.90625 8.125 9.32812C8.54688 9.75 8.59375 10.4531 8.17188 10.9219ZM3.25 21.75C2.40625 21.75 1.70312 21.3281 1.28125 20.625C0.859375 19.9688 0.859375 19.0781 1.28125 18.375C1.70312 17.7188 2.40625 17.25 3.25 17.25C4.04688 17.25 4.75 17.7188 5.17188 18.375C5.59375 19.0781 5.59375 19.9688 5.17188 20.625C4.75 21.3281 4.04688 21.75 3.25 21.75Z" fill="#04567D"/>
<path opacity="0.4" d="M8.5 19.5C8.5 18.7031 9.15625 18 10 18H23.5C24.2969 18 25 18.7031 25 19.5C25 20.3438 24.2969 21 23.5 21H10C9.15625 21 8.5 20.3438 8.5 19.5ZM11.5 12C11.5 11.2031 12.1562 10.5 13 10.5H23.5C24.2969 10.5 25 11.2031 25 12C25 12.8438 24.2969 13.5 23.5 13.5H13C12.1562 13.5 11.5 12.8438 11.5 12ZM13 6C12.1562 6 11.5 5.34375 11.5 4.5C11.5 3.70312 12.1562 3 13 3H23.5C24.2969 3 25 3.70312 25 4.5C25 5.34375 24.2969 6 23.5 6H13Z" fill="#04567D"/>
</svg>
