<svg width="26" height="26" viewBox="0 0 26 26" fill="none" xmlns="http://www.w3.org/2000/svg">
<path d="M18.8125 9.71875L11.5 19.2812V19.8906L14.3125 21.0625L11.0781 24.5312C10.6562 25 10 25.1406 9.4375 24.9062C8.875 24.6719 8.5 24.1562 8.5 23.5V21.25V18.625V18.25C8.5 18.0625 8.54688 17.875 8.6875 17.7344L9.29688 17.125L17.6875 8.73438C17.9688 8.45312 18.4375 8.45312 18.7188 8.6875C19 8.96875 19.0469 9.4375 18.8125 9.71875Z" fill="#04567D"/>
<path opacity="0.4" d="M24.3438 1.28125C24.8125 1.60938 25.0469 2.17188 24.9531 2.73438L21.9531 22.2344C21.9062 22.7031 21.625 23.0781 21.2031 23.3125C20.8281 23.5469 20.3125 23.5938 19.8906 23.4062L11.5 19.8906V19.2812L18.8125 9.71875C19.0469 9.4375 19 8.96875 18.7188 8.6875C18.3906 8.45312 17.9688 8.45312 17.6875 8.73438L9.34375 17.4531L8.6875 18.1094C8.54688 18.25 8.5 18.4375 8.5 18.625L7.14062 18.1094L1.89062 15.9062C1.375 15.6719 1 15.2031 1 14.5938C0.953125 14.0312 1.23438 13.5156 1.75 13.2344L22.75 1.23438C23.2188 0.953125 23.875 0.953125 24.3438 1.28125Z" fill="#04567D"/>
</svg>
