<svg width="20" height="20" viewBox="0 0 20 20" fill="none" xmlns="http://www.w3.org/2000/svg">
<g id="artwork">
<g clip-path="url(#clip0_14424_6027)">
<rect x="-4" width="28.75" height="20" rx="2" fill="#1A47B8"/>
<path id="vector" d="M22.0119 0H-1.2619C-2.77411 0 -4 1.19391 -4 2.66667V17.3333C-4 18.8061 -2.77411 20 -1.2619 20H22.0119C23.5241 20 24.75 18.8061 24.75 17.3333V2.66667C24.75 1.19391 23.5241 0 22.0119 0Z" fill="#1A47B8"/>
<path id="Union" fill-rule="evenodd" clip-rule="evenodd" d="M10.3751 2.5L10.7361 3.2747L11.618 3.36373L10.9592 3.93155L11.1432 4.76127L10.3751 4.3375L9.60696 4.76127L9.79095 3.93155L9.13224 3.36373L10.0141 3.2747L10.3751 2.5ZM4.20202 9.5247L3.841 8.75L3.47998 9.5247L2.59814 9.61373L3.25686 10.1815L3.07287 11.0113L3.841 10.5875L4.60913 11.0113L4.42515 10.1815L5.08386 9.61373L4.20202 9.5247ZM17.2702 9.5247L16.9092 8.75L16.5482 9.5247L15.6663 9.61373L16.325 10.1815L16.1411 11.0113L16.9092 10.5875L17.6773 11.0113L17.4933 10.1815L18.152 9.61373L17.2702 9.5247ZM10.7361 15.7747L10.3751 15L10.0141 15.7747L9.13224 15.8637L9.79095 16.4315L9.60696 17.2613L10.3751 16.8375L11.1432 17.2613L10.9592 16.4315L11.618 15.8637L10.7361 15.7747ZM5.80123 13.125L6.16225 13.8997L7.04409 13.9887L6.38537 14.5565L6.56936 15.3863L5.80123 14.9625L5.0331 15.3863L5.21709 14.5565L4.55837 13.9887L5.44021 13.8997L5.80123 13.125ZM6.16225 5.1497L5.80123 4.375L5.44021 5.1497L4.55837 5.23873L5.21709 5.80655L5.0331 6.63627L5.80123 6.2125L6.56936 6.63627L6.38537 5.80655L7.04409 5.23873L6.16225 5.1497ZM14.949 13.125L15.31 13.8997L16.1918 13.9887L15.5331 14.5565L15.7171 15.3863L14.949 14.9625L14.1808 15.3863L14.3648 14.5565L13.7061 13.9887L14.5879 13.8997L14.949 13.125ZM15.31 5.1497L14.949 4.375L14.5879 5.1497L13.7061 5.23873L14.3648 5.80655L14.1808 6.63627L14.949 6.2125L15.7171 6.63627L15.5331 5.80655L16.1918 5.23873L15.31 5.1497Z" fill="#FFFF00"/>
</g>
</g>
<defs>
<clipPath id="clip0_14424_6027">
<rect x="-4" width="28.75" height="20" rx="2" fill="white"/>
</clipPath>
</defs>
</svg>
