<svg width="32" height="32" viewBox="0 0 32 32" fill="none" xmlns="http://www.w3.org/2000/svg">
<g id="artwork">
<g clip-path="url(#clip0_14494_9351)">
<rect x="-7" width="46" height="32" rx="2" fill="white"/>
<path id="vector" fill-rule="evenodd" clip-rule="evenodd" d="M-7 0H12.7143V14.9333H-7V0Z" fill="#1A47B8"/>
<path id="vector_2" fill-rule="evenodd" clip-rule="evenodd" d="M12.7143 0V2.13333H39V0H12.7143ZM12.7143 4.26667V6.4H39V4.26667H12.7143ZM12.7143 8.53333V10.6667H39V8.53333H12.7143ZM12.7143 12.8V14.9333H39V12.8H12.7143ZM-7 17.0667V19.2H39V17.0667H-7ZM-7 21.3333V23.4667H39V21.3333H-7ZM-7 25.6V27.7333H39V25.6H-7ZM-7 29.8667V32H39V29.8667H-7Z" fill="#F93939"/>
<path id="vector_3" fill-rule="evenodd" clip-rule="evenodd" d="M-4.80957 2.1333V4.26663H-2.61909V2.1333H-4.80957ZM-0.428618 2.1333V4.26663H1.76186V2.1333H-0.428618ZM3.95233 2.1333V4.26663H6.14281V2.1333H3.95233ZM8.33329 2.1333V4.26663H10.5238V2.1333H8.33329ZM6.14281 4.26663V6.39997H8.33329V4.26663H6.14281ZM1.76186 4.26663V6.39997H3.95233V4.26663H1.76186ZM-2.61909 4.26663V6.39997H-0.428618V4.26663H-2.61909ZM-4.80957 6.39997V8.5333H-2.61909V6.39997H-4.80957ZM-0.428618 6.39997V8.5333H1.76186V6.39997H-0.428618ZM3.95233 6.39997V8.5333H6.14281V6.39997H3.95233ZM8.33329 6.39997V8.5333H10.5238V6.39997H8.33329ZM-4.80957 10.6666V12.8H-2.61909V10.6666H-4.80957ZM-0.428618 10.6666V12.8H1.76186V10.6666H-0.428618ZM3.95233 10.6666V12.8H6.14281V10.6666H3.95233ZM8.33329 10.6666V12.8H10.5238V10.6666H8.33329ZM6.14281 8.5333V10.6666H8.33329V8.5333H6.14281ZM1.76186 8.5333V10.6666H3.95233V8.5333H1.76186ZM-2.61909 8.5333V10.6666H-0.428618V8.5333H-2.61909Z" fill="white"/>
</g>
</g>
<defs>
<clipPath id="clip0_14494_9351">
<rect x="-7" width="46" height="32" rx="2" fill="white"/>
</clipPath>
</defs>
</svg>
