<svg width="20" height="20" viewBox="0 0 20 20" fill="none" xmlns="http://www.w3.org/2000/svg">
<g id="icons">
<path id="Vector" d="M10.037 17.1443L10.2671 16.9141C10.4197 16.7616 10.4197 16.5142 10.2671 16.3617L4.45679 10.5513H16.6927C16.9084 10.5513 17.0833 10.3764 17.0833 10.1607V9.83518C17.0833 9.61946 16.9084 9.44455 16.6927 9.44455H4.45679L10.2671 3.6342C10.4197 3.48166 10.4197 3.23433 10.2671 3.08176L10.037 2.85162C9.88442 2.69908 9.63709 2.69908 9.48455 2.85162L2.6144 9.72174C2.46187 9.87427 2.46187 10.1216 2.6144 10.2742L9.48455 17.1443C9.63709 17.2968 9.88442 17.2968 10.037 17.1443V17.1443Z" fill="black"/>
</g>
</svg>
