<svg width="24" height="24" viewBox="0 0 24 24" fill="none" xmlns="http://www.w3.org/2000/svg">
<path d="M14.3438 2C14.8125 2 15.2422 2.27344 15.4375 2.70312L15.75 3.25H19.5C20.1641 3.25 20.75 3.83594 20.75 4.5C20.75 5.20312 20.1641 5.75 19.5 5.75H4.5C3.79688 5.75 3.25 5.20312 3.25 4.5C3.25 3.83594 3.79688 3.25 4.5 3.25H8.25L8.52344 2.70312C8.71875 2.27344 9.14844 2 9.61719 2H14.3438Z" fill="#EB6060"/>
<path opacity="0.4" d="M19.5 19.5C19.5 20.9062 18.3672 22 17 22H7C5.59375 22 4.5 20.9062 4.5 19.5V5.75H19.5V19.5ZM8.875 8.875C8.875 8.5625 8.5625 8.25 8.25 8.25C7.89844 8.25 7.625 8.5625 7.625 8.875V17.625C7.625 17.9766 7.89844 18.25 8.25 18.25C8.5625 18.25 8.875 17.9766 8.875 17.625V8.875ZM12.625 8.875C12.625 8.5625 12.3125 8.25 12 8.25C11.6484 8.25 11.375 8.5625 11.375 8.875V17.625C11.375 17.9766 11.6484 18.25 12 18.25C12.3125 18.25 12.625 17.9766 12.625 17.625V8.875ZM16.375 8.875C16.375 8.5625 16.0625 8.25 15.75 8.25C15.3984 8.25 15.125 8.5625 15.125 8.875V17.625C15.125 17.9766 15.3984 18.25 15.75 18.25C16.0625 18.25 16.375 17.9766 16.375 17.625V8.875Z" fill="#EB6060"/>
</svg>
