<svg width="24" height="24" viewBox="0 0 24 24" fill="none" xmlns="http://www.w3.org/2000/svg">
<path d="M9.10938 19.9688C8.875 20.2031 8.52344 20.3984 8.17188 20.5156L3.17188 21.9609C2.85938 22.0781 2.50781 22 2.27344 21.7266C2 21.4922 1.92188 21.1406 2 20.8281L3.48438 15.8281C3.60156 15.4766 3.79688 15.125 4.03125 14.8906L13.8359 5.125L18.875 10.1641L9.10938 19.9688Z" fill="#34A8C5"/>
<path opacity="0.4" d="M16.1406 2.78125C17.1172 1.80469 18.7188 1.80469 19.6953 2.78125L21.2188 4.30469C22.1953 5.28125 22.1953 6.88281 21.2188 7.85938L18.875 10.1641L13.8359 5.125L16.1406 2.78125Z" fill="#34A8C5"/>
</svg>
