<svg width="21" height="19" viewBox="0 0 21 19" fill="none" xmlns="http://www.w3.org/2000/svg">
<path d="M7.5 17.3125C7.5 17.8594 7.07031 18.25 6.5625 18.25H3.75C1.64062 18.25 0 16.6094 0 14.5V4.5C0 2.42969 1.64062 0.75 3.75 0.75H6.5625C7.07031 0.75 7.5 1.17969 7.5 1.6875C7.5 2.23438 7.07031 2.625 6.5625 2.625H3.75C2.69531 2.625 1.875 3.48438 1.875 4.5V14.5C1.875 15.5547 2.69531 16.375 3.75 16.375H6.5625C7.07031 16.375 7.5 16.8047 7.5 17.3125ZM19.7266 8.875L14.7656 3.5625C14.4141 3.17188 13.8281 3.17188 13.4375 3.52344C13.0469 3.875 13.0469 4.46094 13.3984 4.85156L16.875 8.5625H7.14844C6.64062 8.5625 6.25 8.99219 6.25 9.5C6.25 10.0469 6.64062 10.4375 7.14844 10.4375H16.8359L13.3203 14.1875C12.9688 14.5781 12.9688 15.1641 13.3594 15.5156C13.5938 15.6719 13.8281 15.75 14.0234 15.75C14.2578 15.75 14.4922 15.6719 14.6875 15.4766L19.6484 10.1641C20.0781 9.8125 20.0781 9.22656 19.7266 8.875Z" fill="white"/>
</svg>
