<svg width="24" height="26" viewBox="0 0 24 26" fill="none" xmlns="http://www.w3.org/2000/svg">
<g id="logo">
<path id="Vector" d="M11.9472 26H0.546143C0.00435725 26 0.00435723 26 0.00435723 25.4817C0.00435723 25.4275 0.0122092 25.3656 0.00435723 25.3115C-0.0191987 25.1413 0.051469 25.0794 0.247768 25.0639C0.923037 25.0098 2.13224 24.7545 2.62691 24.329C3.76545 23.3698 5.10813 23.3775 6.23882 24.3522C7.3538 25.3037 8.9713 25.3192 10.1177 24.3909C11.3897 23.3543 12.6146 23.3621 13.8788 24.4064C14.9623 25.3037 16.6113 25.296 17.7027 24.3832C18.9119 23.3698 20.1761 23.3621 21.401 24.3677C21.8956 24.77 23.097 25.0175 23.7487 25.0639C23.9371 25.0794 23.9764 25.1413 23.9686 25.296C23.9371 26 23.3011 26 22.5238 26H11.9472Z" fill="white"/>
<path id="Vector_2" d="M23.9686 23.9113C23.9764 24.1588 23.8979 24.2594 23.6309 24.1743C23.5681 24.1588 22.8693 24.1511 22.8143 24.1356C22.1155 24.0041 22.0684 23.9577 22.0684 23.3079C22.0684 17.0032 22.0684 20.6004 22.0684 14.288C22.0684 13.3365 21.6051 12.6789 20.7571 12.385C19.5165 11.9595 18.1581 12.8259 18.1581 14.0559C18.1581 20.2368 18.1581 16.5159 18.166 22.6968C18.166 22.9598 18.0874 23.1145 17.8519 23.2924C17.3179 23.687 16.8233 24.0969 16.1087 24.1743C15.3628 24.2517 14.7032 24.066 14.13 23.6173C13.9887 23.509 13.973 23.3698 13.973 23.2151C13.973 22.5962 13.9652 21.9696 13.9652 21.3507C13.9809 15.2163 13.973 18.9836 13.973 12.8491C13.973 12.4314 13.9259 12.0214 13.6903 11.6501C13.2663 10.9925 12.4183 10.6444 11.6017 10.7914C10.8008 10.9384 10.157 11.5882 10.0706 12.3463C10.047 12.5784 10.0313 12.8027 10.0313 13.0348C10.0313 19.0455 10.0235 15.1466 10.0392 21.1573C10.0392 21.8226 10.047 22.4956 10.0392 23.1609C10.0392 23.4239 9.92925 23.5941 9.71724 23.7411C8.85353 24.3368 7.61292 24.3445 6.7492 23.7488C6.49009 23.5709 6.25453 23.362 5.99541 23.1764C5.89334 23.099 5.88548 23.0062 5.87763 22.8979C5.86193 22.5188 5.83837 22.1398 5.83837 21.7607C5.83837 15.9125 5.83837 19.966 5.83837 14.1255C5.83837 13.2127 5.17881 12.4546 4.26798 12.3153C3.24722 12.1606 2.32069 12.6789 2.02232 13.5763C1.95165 13.8006 1.93595 14.0249 1.93595 14.257C1.93595 19.9274 1.92809 15.7036 1.9438 21.3739C1.9438 22.0856 1.89669 22.7973 1.93595 23.5168C1.95165 23.8107 1.82602 23.9654 1.54335 24.0428C1.50409 24.0505 1.47268 24.0583 1.43342 24.0737C0.656075 24.2981 0.0593262 24.2594 0.0593262 23.6096C0.0593262 16.16 0.0671781 18.9062 0.0593262 11.4644C0.0593262 11.1163 0.161402 10.977 0.530444 10.861C4.06383 9.8012 8.22537 8.43197 11.7509 7.35669C11.9393 7.29481 12.1042 7.30254 12.2927 7.36443C15.8418 8.44744 20.0269 9.82441 23.5838 10.8919C23.8822 10.977 24 11.1008 24 11.3716C23.9607 14.7598 23.945 22.8824 23.9686 23.9113Z" fill="white"/>
<path id="Vector_3" d="M2.81547 9.16695V7.20979C2.81547 5.97206 2.82332 4.74207 2.80762 3.51208C2.80762 3.24907 2.89399 3.17944 3.16881 3.17944C4.62142 3.18718 6.06618 3.18718 7.5188 3.17944C7.78576 3.17944 7.89569 3.24133 7.88784 3.51208C7.87214 4.80396 7.87999 6.09584 7.88784 7.38771C7.88784 7.57337 7.84858 7.68167 7.63658 7.74356C6.10544 8.19997 4.58216 8.67185 3.05888 9.136C2.98821 9.14374 2.91754 9.15147 2.81547 9.16695ZM4.42512 5.85603C4.42512 6.13452 4.43297 6.413 4.42512 6.68376C4.41727 6.84621 4.48794 6.91583 4.66068 6.91583C5.1318 6.91583 5.61077 6.91583 6.08189 6.91583C6.21537 6.91583 6.33315 6.89262 6.33315 6.73017C6.3253 6.16546 6.36456 5.60075 6.30959 5.03603C6.26248 4.53321 5.77566 4.23151 5.24173 4.27793C4.7549 4.32434 4.42512 4.68792 4.42512 5.19075C4.42512 5.41509 4.42512 5.63943 4.42512 5.85603Z" fill="white"/>
<path id="Vector_4" d="M18.2053 2.44451C19.0926 2.44451 19.972 2.43677 20.8593 2.45225C21.1263 2.45225 21.2362 2.3981 21.2284 2.12734C21.2048 1.53169 21.2126 0.843201 21.2284 0.23981C21.2284 0.0541505 21.1734 0.0464147 20.5452 0.0464147C19.9406 0.0464147 19.9249 0.0850938 19.9249 0.29396V1.0598C19.9249 1.22999 19.8621 1.21452 19.3831 1.21452C18.8963 1.21452 18.8414 1.18358 18.8414 1.05207C18.8414 0.866409 18.8414 0.665278 18.8414 0.340375C18.8492 0.0232074 18.8257 0.0309431 18.2132 0.0309431C17.5065 0.0309431 17.585 0.0309432 17.585 0.541506C17.585 0.703957 17.585 1.01339 17.585 1.09075C17.585 1.26867 17.4437 1.22226 17.0197 1.22226C16.6114 1.22226 16.5172 1.22999 16.5172 1.08301C16.5172 0.850937 16.5172 0.502827 16.5172 0.270753C16.5172 0.0696223 16.5093 0 15.9047 0C15.2216 0 15.2059 0.0077359 15.2059 0.263017C15.2059 0.642071 15.2216 1.70187 15.198 2.08093C15.1823 2.36715 15.2687 2.45998 15.5906 2.45998C16.4622 2.43677 17.3338 2.44451 18.2053 2.44451Z" fill="white"/>
<path id="Vector_5" d="M5.37516 2.44451C6.26243 2.44451 7.14185 2.43677 8.02912 2.45225C8.29609 2.45225 8.40602 2.3981 8.39816 2.12734C8.37461 1.53169 8.38246 0.843201 8.39816 0.239809C8.39816 0.0541505 8.3432 0.0464147 7.71504 0.0464147C7.11044 0.0464147 7.09474 0.0850938 7.09474 0.29396V1.0598C7.09474 1.22999 6.89059 1.21452 6.55295 1.21452C6.18391 1.21452 6.01117 1.18358 6.01117 1.05207C6.01117 0.866409 6.01117 0.665278 6.01117 0.340375C6.01902 0.0232074 5.99546 0.0309431 5.38301 0.0309431C4.67633 0.0309431 4.75485 0.0309432 4.75485 0.541505C4.75485 0.703957 4.75485 1.01339 4.75485 1.09075C4.75485 1.26867 4.54285 1.22226 4.18951 1.22226C3.85973 1.22226 3.68699 1.22999 3.68699 1.08301C3.68699 0.850937 3.68699 0.502827 3.68699 0.270753C3.68699 0.0696222 3.67913 0 3.07453 0C2.39141 0 2.37571 0.0077359 2.37571 0.263017C2.37571 0.642071 2.39141 1.70187 2.36786 2.08093C2.35215 2.35942 2.44638 2.45998 2.76045 2.45225C3.63202 2.43677 4.50359 2.44451 5.37516 2.44451Z" fill="white"/>
<path id="Vector_6" d="M20.7336 9.16695V7.20979C20.7336 5.97206 20.7257 4.74207 20.7414 3.51208C20.7414 3.24907 20.655 3.17944 20.3802 3.17944C18.9355 3.18718 17.4907 3.18718 16.0459 3.17944C15.779 3.17944 15.6691 3.24133 15.6769 3.51208C15.6926 4.80396 15.6848 6.09584 15.6769 7.38771C15.6769 7.57337 15.7162 7.68167 15.9282 7.74356C17.4514 8.19997 18.9747 8.67185 20.498 9.136C20.5608 9.14374 20.6393 9.15147 20.7336 9.16695ZM19.1318 5.85603C19.1318 6.13452 19.1239 6.413 19.1318 6.68376C19.1396 6.84621 19.069 6.91583 18.8962 6.91583C18.4251 6.91583 17.9461 6.91583 17.475 6.91583C17.3415 6.91583 17.2237 6.89262 17.2237 6.73017C17.2316 6.16546 17.1923 5.60075 17.2473 5.03603C17.2944 4.53321 17.7812 4.23151 18.3152 4.27793C18.802 4.32434 19.1239 4.68792 19.1318 5.19075C19.1396 5.41509 19.1318 5.63943 19.1318 5.85603Z" fill="white"/>
</g>
</svg>
