<svg width="120" height="120" viewBox="0 0 120 120" fill="none" xmlns="http://www.w3.org/2000/svg">
<rect x="0.565918" y="0.565918" width="118.868" height="118.868" rx="59.434" fill="url(#paint0_linear_11953_30373)"/>
<path d="M64.5 36C68.625 36 72 39.375 72 43.5C72 44.3438 71.25 45 70.5 45C69.6562 45 69 44.3438 69 43.5C69 41.0625 66.9375 39 64.5 39C63.6562 39 63 38.3438 63 37.5C63 36.75 63.6562 36 64.5 36ZM43.5 75C44.25 75 45 75.75 45 76.5C45 77.3438 44.25 78 43.5 78C39.2812 78 36 74.7188 36 70.5C36 69.75 36.6562 69 37.5 69C38.25 69 39 69.75 39 70.5C39 73.0312 40.9688 75 43.5 75Z" fill="url(#paint1_linear_11953_30373)"/>
<path opacity="0.4" d="M80.25 45C82.3125 45 84 46.6875 84 48.75V63.4688C84 68.4375 82.0312 73.2188 78.4688 76.6875L75.9375 79.2188C72.75 82.4062 68.5312 84 64.3125 84C60.0938 84 55.875 82.4062 52.5938 79.2188L38.8125 65.4375C38.25 64.875 37.9688 64.0312 37.9688 63.2812C37.9688 61.5938 39.375 60.2812 40.9688 60.2812C41.7188 60.2812 42.4688 60.5625 43.125 61.2188L50.625 68.4375C50.9062 68.7188 51.2812 68.9062 51.6562 68.9062C52.4062 68.9062 53.0625 68.25 53.0625 67.5C53.0625 67.125 52.9688 66.75 52.5938 66.375L40.9688 54.75C40.4062 54.1875 40.125 53.3438 40.125 52.5938C40.125 51.0938 41.3438 49.6875 43.125 49.6875C43.875 49.6875 44.625 49.9688 45.1875 50.625L56.9062 62.1562C57.2812 62.4375 57.6562 62.625 58.0312 62.625C58.6875 62.625 59.4375 62.0625 59.4375 61.2188C59.4375 60.8438 59.25 60.4688 58.9688 60.0938L45.2812 46.3125C44.7188 45.75 44.4375 45 44.4375 44.25C44.4375 42.4688 45.75 41.25 47.3438 41.25C48.0938 41.25 48.8438 41.5312 49.4062 42.0938L63.375 55.6875C63.6562 56.0625 64.125 56.1562 64.5 56.1562C65.1562 56.1562 65.9062 55.5938 65.9062 54.75C65.9062 54.375 65.7188 54 65.4375 53.7188L53.8125 42C53.1562 41.4375 52.875 40.6875 52.875 39.9375C52.875 38.3438 54.0938 36.9375 55.7812 36.9375C56.5312 36.9375 57.375 37.3125 57.9375 37.875L76.5 56.3438V48.75C76.5 46.6875 78.0938 45 80.25 45Z" fill="url(#paint2_linear_11953_30373)"/>
<defs>
<linearGradient id="paint0_linear_11953_30373" x1="812.196" y1="60" x2="12.0783" y2="60" gradientUnits="userSpaceOnUse">
<stop stop-color="#91EAC8"/>
<stop offset="0.161458" stop-color="#C6F4E2"/>
<stop offset="0.529166" stop-color="#B7D3DF"/>
<stop offset="1" stop-color="#CBE3EF"/>
</linearGradient>
<linearGradient id="paint1_linear_11953_30373" x1="60" y1="36" x2="60" y2="84" gradientUnits="userSpaceOnUse">
<stop stop-color="#04567D"/>
<stop offset="0.673642" stop-color="#04567D" stop-opacity="0.9"/>
<stop offset="1" stop-color="#04567D" stop-opacity="0.8"/>
</linearGradient>
<linearGradient id="paint2_linear_11953_30373" x1="60" y1="36" x2="60" y2="84" gradientUnits="userSpaceOnUse">
<stop stop-color="#04567D"/>
<stop offset="0.673642" stop-color="#04567D" stop-opacity="0.9"/>
<stop offset="1" stop-color="#04567D" stop-opacity="0.8"/>
</linearGradient>
</defs>
</svg>
