<svg width="20" height="21" viewBox="0 0 20 21" fill="none" xmlns="http://www.w3.org/2000/svg">
<path opacity="0.4" d="M1.25 8H18.75V18.625C18.75 19.6797 17.8906 20.5 16.875 20.5H3.125C2.07031 20.5 1.25 19.6797 1.25 18.625V8Z" fill="#B7D3DF"/>
<path d="M7.5 3H12.5V1.75C12.5 1.08594 13.0469 0.5 13.75 0.5C14.4141 0.5 15 1.08594 15 1.75V3H16.875C17.8906 3 18.75 3.85938 18.75 4.875V8H1.25V4.875C1.25 3.85938 2.07031 3 3.125 3H5V1.75C5 1.08594 5.54688 0.5 6.25 0.5C6.91406 0.5 7.5 1.08594 7.5 1.75V3Z" fill="#B7D3DF"/>
</svg>
