<svg width="20" height="19" viewBox="0 0 20 19" fill="none" xmlns="http://www.w3.org/2000/svg">
<path opacity="0.4" d="M16.25 0.75C17.6172 0.75 18.75 1.88281 18.75 3.25V15.75C18.75 17.1562 17.6172 18.25 16.25 18.25H3.75C2.34375 18.25 1.25 17.1562 1.25 15.75V3.25C1.25 1.88281 2.34375 0.75 3.75 0.75H16.25ZM13.9453 4.96875C13.3594 4.38281 12.3438 4.38281 11.7578 4.96875L10.8984 5.82812L13.6719 8.60156L14.5312 7.74219C15.1172 7.11719 15.1172 6.14062 14.5312 5.55469L13.9453 4.96875ZM5.58594 11.375L5 13.7188C4.96094 13.9531 5 14.1875 5.15625 14.3438C5.3125 14.5 5.54688 14.5391 5.74219 14.5L8.125 13.9141C8.32031 13.8359 8.51562 13.7188 8.67188 13.5625L12.8125 9.46094L10.0391 6.6875L5.89844 10.7891C5.74219 10.9844 5.625 11.1797 5.58594 11.375Z" fill="#B7D3DF"/>
<path d="M11.7578 4.96875C12.3438 4.38281 13.3594 4.38281 13.9453 4.96875L14.5312 5.55469C15.1172 6.14062 15.1172 7.11719 14.5312 7.74219L13.6719 8.60156L10.8984 5.82812L11.7578 4.96875ZM12.8125 9.46094L8.67188 13.5625C8.51562 13.7188 8.32031 13.8359 8.125 13.9141L5.74219 14.5C5.54688 14.5391 5.3125 14.5 5.15625 14.3438C5 14.1875 4.96094 13.9531 5 13.7188L5.58594 11.375C5.625 11.1797 5.74219 10.9844 5.89844 10.7891L10.0391 6.6875L12.8125 9.46094Z" fill="#B7D3DF"/>
</svg>
