<svg width="20" height="19" viewBox="0 0 20 19" fill="none" xmlns="http://www.w3.org/2000/svg">
<path opacity="0.4" d="M0 2.625C0 1.60938 0.820312 0.75 1.875 0.75H16.875C17.8906 0.75 18.75 1.60938 18.75 2.625V4.85156C18.3594 4.65625 17.9297 4.5 17.5 4.5H1.875C0.820312 4.5 0 3.67969 0 2.625Z" fill="#04567D"/>
<path d="M1.875 4.5H17.5C17.5 4.5 17.5 4.5 17.5391 4.5C17.9688 4.53906 18.3594 4.65625 18.75 4.85156C19.4922 5.28125 20 6.10156 20 7V15.75C20 17.1562 18.8672 18.25 17.5 18.25H2.5C1.09375 18.25 0 17.1562 0 15.75V2.625C0 3.67969 0.820312 4.5 1.875 4.5ZM16.25 12.625C16.9141 12.625 17.5 12.0781 17.5 11.375C17.5 10.7109 16.9141 10.125 16.25 10.125C15.5469 10.125 15 10.7109 15 11.375C15 12.0781 15.5469 12.625 16.25 12.625Z" fill="#04567D"/>
</svg>
